<svg version="1.1" xmlns="http://www.w3.org/2000/svg" xmlns:xlink="http://www.w3.org/1999/xlink" width="58.76638" height="44.3833" viewBox="909.39835,392.34673,58.76638,44.3833"><defs><clipPath id="clip-1"><rect x="2609.86085" y="-794.49465" transform="rotate(37.81968) scale(0.35187,0.34588) skewX(-15.12168)" width="52.3698" height="153.935" id="clip-1" fill="none" fill-rule="nonzero"/></clipPath><linearGradient x1="917.30939" y1="431.61786" x2="930.16896" y2="421.99439" gradientUnits="userSpaceOnUse" id="color-1"><stop offset="0" stop-color="#000000" stop-opacity="0"/><stop offset="1" stop-color="#106d90"/></linearGradient><linearGradient x1="933.19288" y1="427.13748" x2="941.80268" y2="420.69433" gradientUnits="userSpaceOnUse" id="color-2"><stop offset="0" stop-color="#a43440"/><stop offset="1" stop-color="#c73634"/></linearGradient><linearGradient x1="921.7574" y1="418.26091" x2="930.36742" y2="411.81781" gradientUnits="userSpaceOnUse" id="color-3"><stop offset="0" stop-color="#a43440"/><stop offset="1" stop-color="#c73634"/></linearGradient><radialGradient cx="952.76831" cy="405.99707" r="13.4289" gradientUnits="userSpaceOnUse" id="color-4"><stop offset="0" stop-color="#f4bab3"/><stop offset="0.77" stop-color="#8d6fc7"/><stop offset="0.96" stop-color="#b695e5"/></radialGradient><radialGradient cx="959.72271" cy="398.50388" r="3.60964" gradientUnits="userSpaceOnUse" id="color-5"><stop offset="0.02" stop-color="#ab5e75"/><stop offset="0.25" stop-color="#9f577b"/><stop offset="0.67" stop-color="#7f458c"/><stop offset="0.99" stop-color="#61349c"/></radialGradient><linearGradient x1="959.13806" y1="398.94255" x2="960.21375" y2="398.13751" gradientUnits="userSpaceOnUse" id="color-6"><stop offset="0" stop-color="#ffff18"/><stop offset="1" stop-color="#ff7400"/></linearGradient><radialGradient cx="936.37434" cy="415.86141" r="6.37655" gradientUnits="userSpaceOnUse" id="color-7"><stop offset="0.02" stop-color="#8881bc"/><stop offset="0.29" stop-color="#8375b7"/><stop offset="0.77" stop-color="#7555aa"/><stop offset="0.99" stop-color="#6d43a3"/></radialGradient><radialGradient cx="949.34814" cy="406.18575" r="6.78049" gradientUnits="userSpaceOnUse" id="color-8"><stop offset="0.02" stop-color="#8881bc"/><stop offset="0.29" stop-color="#8375b7"/><stop offset="0.77" stop-color="#7555aa"/><stop offset="0.99" stop-color="#6d43a3"/></radialGradient><radialGradient cx="953.82548" cy="402.53179" r="8.43577" gradientUnits="userSpaceOnUse" id="color-9"><stop offset="0.02" stop-color="#725eb0"/><stop offset="0.38" stop-color="#6d52aa"/><stop offset="0.99" stop-color="#61349c"/></radialGradient><linearGradient x1="946.64514" y1="408.37314" x2="954.16633" y2="402.74482" gradientUnits="userSpaceOnUse" id="color-10"><stop offset="0" stop-color="#ffff29"/><stop offset="1" stop-color="#ff7e59"/></linearGradient><radialGradient cx="929.39388" cy="421.2029" r="2.50494" gradientUnits="userSpaceOnUse" id="color-11"><stop offset="0.02" stop-color="#725eb0"/><stop offset="0.38" stop-color="#6d52aa"/><stop offset="0.99" stop-color="#61349c"/></radialGradient><radialGradient cx="955.73153" cy="401.46986" r="4.61628" gradientUnits="userSpaceOnUse" id="color-12"><stop offset="0.02" stop-color="#8881bc"/><stop offset="0.29" stop-color="#8375b7"/><stop offset="0.77" stop-color="#7555aa"/><stop offset="0.99" stop-color="#6d43a3"/></radialGradient><linearGradient x1="939.76261" y1="413.14679" x2="940.21608" y2="412.80752" gradientUnits="userSpaceOnUse" id="color-13"><stop offset="0" stop-color="#8dc7ff"/><stop offset="0.32" stop-color="#5c4d86"/></linearGradient><radialGradient cx="939.78782" cy="413.06954" r="0.24907" gradientUnits="userSpaceOnUse" id="color-14"><stop offset="0.02" stop-color="#8881bc"/><stop offset="0.29" stop-color="#8375b7"/><stop offset="0.77" stop-color="#7555aa"/><stop offset="1" stop-color="#6d43a3"/></radialGradient><linearGradient x1="940.88153" y1="412.30957" x2="941.33594" y2="411.96955" gradientUnits="userSpaceOnUse" id="color-15"><stop offset="0" stop-color="#8dc7ff"/><stop offset="0.32" stop-color="#5c4d86"/></linearGradient><radialGradient cx="940.91139" cy="412.22892" r="0.24907" gradientUnits="userSpaceOnUse" id="color-16"><stop offset="0.02" stop-color="#8881bc"/><stop offset="0.29" stop-color="#8375b7"/><stop offset="0.77" stop-color="#7555aa"/><stop offset="1" stop-color="#6d43a3"/></radialGradient><radialGradient cx="944.90229" cy="403.65734" r="0.24907" gradientUnits="userSpaceOnUse" id="color-17"><stop offset="0" stop-color="#f4bab3"/><stop offset="1" stop-color="#8d6fc7"/></radialGradient><radialGradient cx="948.51458" cy="401.54924" r="0.24907" gradientUnits="userSpaceOnUse" id="color-18"><stop offset="0" stop-color="#f4bab3"/><stop offset="1" stop-color="#8d6fc7"/></radialGradient><radialGradient cx="944.44085" cy="407.17795" r="0.24907" gradientUnits="userSpaceOnUse" id="color-19"><stop offset="0" stop-color="#f4bab3"/><stop offset="1" stop-color="#8d6fc7"/></radialGradient><radialGradient cx="947.61202" cy="410.0583" r="0.24907" gradientUnits="userSpaceOnUse" id="color-20"><stop offset="0" stop-color="#f4bab3"/><stop offset="1" stop-color="#8d6fc7"/></radialGradient><radialGradient cx="952.06942" cy="410.27948" r="0.24907" gradientUnits="userSpaceOnUse" id="color-21"><stop offset="0" stop-color="#f4bab3"/><stop offset="1" stop-color="#8d6fc7"/></radialGradient><radialGradient cx="955.74648" cy="406.98268" r="0.24907" gradientUnits="userSpaceOnUse" id="color-22"><stop offset="0" stop-color="#f4bab3"/><stop offset="1" stop-color="#8d6fc7"/></radialGradient><radialGradient cx="956.07288" cy="404.06511" r="0.24907" gradientUnits="userSpaceOnUse" id="color-23"><stop offset="0" stop-color="#f4bab3"/><stop offset="1" stop-color="#8d6fc7"/></radialGradient><radialGradient cx="953.44785" cy="401.52931" r="0.24907" gradientUnits="userSpaceOnUse" id="color-24"><stop offset="0" stop-color="#f4bab3"/><stop offset="1" stop-color="#8d6fc7"/></radialGradient><linearGradient x1="929.13469" y1="423.98744" x2="938.70139" y2="416.82841" gradientUnits="userSpaceOnUse" id="color-25"><stop offset="0" stop-color="#a43411"/><stop offset="1" stop-color="#c73634"/></linearGradient><linearGradient x1="957.12316" y1="409.75156" x2="957.6781" y2="410.18219" gradientUnits="userSpaceOnUse" id="color-26"><stop offset="0" stop-color="#ffff18"/><stop offset="1" stop-color="#ff7400"/></linearGradient><linearGradient x1="944.71589" y1="399.88465" x2="945.23776" y2="400.28973" gradientUnits="userSpaceOnUse" id="color-27"><stop offset="0" stop-color="#ffff18"/><stop offset="1" stop-color="#ff7400"/></linearGradient><linearGradient x1="933.09958" y1="412.83856" x2="933.62418" y2="412.44608" gradientUnits="userSpaceOnUse" id="color-28"><stop offset="0" stop-color="#8dc7ff"/><stop offset="0.32" stop-color="#5c4d86"/></linearGradient><linearGradient x1="941.04241" y1="418.17185" x2="941.56677" y2="417.77964" gradientUnits="userSpaceOnUse" id="color-29"><stop offset="0" stop-color="#8dc7ff"/><stop offset="0.32" stop-color="#5c4d86"/></linearGradient><linearGradient x1="937.56372" y1="415.40987" x2="938.08821" y2="415.01736" gradientUnits="userSpaceOnUse" id="color-30"><stop offset="0" stop-color="#8dc7ff"/><stop offset="0.32" stop-color="#5c4d86"/></linearGradient><radialGradient cx="937.86775" cy="415.27185" r="2.12256" gradientUnits="userSpaceOnUse" id="color-31"><stop offset="0" stop-color="#003cee"/><stop offset="0.06" stop-color="#0036d6"/><stop offset="0.2" stop-color="#00289e"/><stop offset="0.34" stop-color="#001c6d"/><stop offset="0.48" stop-color="#001246"/><stop offset="0.62" stop-color="#000a27"/><stop offset="0.75" stop-color="#000412"/><stop offset="0.88" stop-color="#000104"/><stop offset="1" stop-color="#000000"/></radialGradient><radialGradient cx="957.52866" cy="409.8102" r="1.69349" gradientUnits="userSpaceOnUse" id="color-32"><stop offset="0" stop-color="#ff9a00"/><stop offset="0.09" stop-color="#d68100"/><stop offset="0.23" stop-color="#9e5f00"/><stop offset="0.36" stop-color="#6e4200"/><stop offset="0.5" stop-color="#462a00"/><stop offset="0.63" stop-color="#271800"/><stop offset="0.76" stop-color="#120b00"/><stop offset="0.89" stop-color="#040300"/><stop offset="1" stop-color="#000000"/></radialGradient><radialGradient cx="959.40965" cy="398.70404" r="1.69349" gradientUnits="userSpaceOnUse" id="color-33"><stop offset="0" stop-color="#ff9a00"/><stop offset="0.09" stop-color="#d68100"/><stop offset="0.23" stop-color="#9e5f00"/><stop offset="0.36" stop-color="#6e4200"/><stop offset="0.5" stop-color="#462a00"/><stop offset="0.63" stop-color="#271800"/><stop offset="0.76" stop-color="#120b00"/><stop offset="0.89" stop-color="#040300"/><stop offset="1" stop-color="#000000"/></radialGradient><radialGradient cx="945.02624" cy="400.0312" r="0.87522" gradientUnits="userSpaceOnUse" id="color-34"><stop offset="0" stop-color="#ff9a00"/><stop offset="0.09" stop-color="#d68100"/><stop offset="0.23" stop-color="#9e5f00"/><stop offset="0.36" stop-color="#6e4200"/><stop offset="0.5" stop-color="#462a00"/><stop offset="0.63" stop-color="#271800"/><stop offset="0.76" stop-color="#120b00"/><stop offset="0.89" stop-color="#040300"/><stop offset="1" stop-color="#000000"/></radialGradient><radialGradient cx="941.16178" cy="417.87226" r="0.81826" gradientUnits="userSpaceOnUse" id="color-35"><stop offset="0" stop-color="#003cee"/><stop offset="0.06" stop-color="#0036d6"/><stop offset="0.2" stop-color="#00289e"/><stop offset="0.34" stop-color="#001c6d"/><stop offset="0.48" stop-color="#001246"/><stop offset="0.62" stop-color="#000a27"/><stop offset="0.75" stop-color="#000412"/><stop offset="0.88" stop-color="#000104"/><stop offset="1" stop-color="#000000"/></radialGradient><radialGradient cx="933.18257" cy="412.55036" r="0.81826" gradientUnits="userSpaceOnUse" id="color-36"><stop offset="0" stop-color="#003cee"/><stop offset="0.06" stop-color="#0036d6"/><stop offset="0.2" stop-color="#00289e"/><stop offset="0.34" stop-color="#001c6d"/><stop offset="0.48" stop-color="#001246"/><stop offset="0.62" stop-color="#000a27"/><stop offset="0.75" stop-color="#000412"/><stop offset="0.88" stop-color="#000104"/><stop offset="1" stop-color="#000000"/></radialGradient></defs><g fill="none" fill-rule="none" stroke="none" stroke-width="1" stroke-linecap="butt" stroke-linejoin="miter" stroke-miterlimit="10" stroke-dasharray="" stroke-dashoffset="0" font-family="none" font-weight="none" font-size="none" text-anchor="none" style="mix-blend-mode: normal"><g><g clip-path="url(#clip-1)" id="Group 1"><path d="M926.53046,419.252l-12.41483,9.83433l5.57168,3.62213l12.36225,-9.09335c0,0 -3.73517,-3.39837 -5.5191,-4.36311z" id="Path 1" fill="url(#color-1)" fill-rule="nonzero" style="mix-blend-mode: screen"/><path d="M940.59785,420.37606l2.54371,1.36061c0,0 -3.72317,3.30978 -10.83992,4.71188l-0.20244,-0.15738l6.25214,-4.4312l-0.41349,-0.34327z" id="Path 1" fill="url(#color-2)" fill-rule="evenodd"/><path d="M930.81145,412.79507l-1.78418,-2.01733c0,0 -4.40895,2.77732 -6.37959,8.17412l0.20263,0.15742l5.91901,-4.68271l0.44306,0.32135z" id="Path 1" fill="url(#color-3)" fill-rule="evenodd"/><path d="M959.32126,398.89801c-2.77164,-2.15144 -13.93226,-0.41604 -19.93142,4.60792c-5.99896,5.02369 -12.45778,14.2186 -12.45778,14.2186l3.51467,2.78309l3.58619,2.72901c0,0 12.18324,-4.75844 18.88073,-9.2333c6.69749,-4.47487 9.16054,-12.96844 6.40761,-15.10532z" id="Path 1" fill="url(#color-4)" fill-rule="evenodd"/><path d="M926.92929,417.72517c0,0 4.40983,2.86102 7.10091,5.51211c0,0 -4.36794,-2.77785 -7.10091,-5.51211z" id="Path 1" fill="#31165f" fill-rule="evenodd"/><path d="M952.72487,398.15752c0,0 5.19608,2.09577 7.33105,6.19513c0,0 1.25764,-3.88 -0.73462,-5.45464c-1.79247,-1.41692 -6.59643,-0.74049 -6.59643,-0.74049z" id="Path 1" fill="url(#color-5)" fill-rule="evenodd"/><path d="M959.98926,404.37271c-1.94103,-3.83659 -7.2416,-6.14089 -7.29906,-6.16729l0.07006,-0.09467c0.05399,0.02208 5.40301,2.34877 7.3613,6.2229z" id="Path 1" fill="#53345f" fill-rule="nonzero"/><path d="M958.16425,398.34124l1.96892,1.69131c0,0 -0.28486,-1.39034 -1.96892,-1.69131z" id="Path 1" fill="#53345f" fill-rule="evenodd"/><path d="M958.55464,398.48968c0.44975,0.25228 0.85294,0.54907 1.199,0.88313c0,0 0.78,-0.9319 0.45915,-1.23457c-0.32093,-0.30237 -1.65814,0.35144 -1.65814,0.35144z" id="Path 1" fill="url(#color-6)" fill-rule="evenodd"/><path d="M931.44965,411.83868c0,0 7.99684,3.14836 11.12276,7.72486c-3.24146,1.5254 -8.54303,3.6729 -8.54303,3.6729c0,0 -2.32384,-2.39808 -7.10072,-5.51175c0.00052,0.00076 1.959,-3.14583 4.521,-5.88602z" id="Path 1" fill="url(#color-7)" fill-rule="evenodd" opacity="0.5" style="mix-blend-mode: multiply"/><path d="M954.50106,402.15154c-2.69686,-1.79001 -7.52542,-0.89655 -10.29517,1.0022c-2.76962,1.89846 -2.01628,4.95775 0.59273,6.87058c2.60896,1.91283 6.49321,2.21299 9.10694,-0.19188c2.36639,-2.17065 3.59288,-5.69166 0.5955,-7.68091z" id="Path 1" fill="url(#color-8)" fill-rule="evenodd" opacity="0.5" style="mix-blend-mode: multiply"/><path d="M954.92411,401.83495c-2.69686,-1.79001 -7.52546,-0.89656 -10.29505,1.00191c-2.76975,1.89875 -2.0164,4.95804 0.59163,6.87161c2.60815,1.91328 6.49336,2.21271 9.10787,-0.19262c2.3655,-2.1699 3.59195,-5.69092 0.59555,-7.6809z" id="Path 1" fill="#31165f" fill-rule="evenodd"/><path d="M955.21905,401.6143c-2.69681,-1.79 -7.52542,-0.89655 -10.29505,1.00191c-2.76962,1.89846 -2.01637,4.95804 0.59179,6.87132c2.60799,1.91356 6.49321,2.21299 9.10775,-0.19232c2.36559,-2.17021 3.59195,-5.69092 0.5955,-7.68091z" id="Path 1" fill="url(#color-9)" fill-rule="evenodd"/><path d="M954.4374,402.4522c-2.38087,-1.63481 -5.89677,-0.71736 -8.06351,0.76679c-2.16674,1.48414 -1.56148,3.87906 0.48766,5.38251c2.04914,1.50344 5.08851,1.74369 7.13123,-0.13181c1.853,-1.70081 2.93572,-4.31309 0.44462,-6.01749z" id="Path 1" fill="#a6345f" fill-rule="evenodd"/><path d="M949.70906,409.66809c-1.06508,-0.14152 -2.04405,-0.52674 -2.80683,-1.10512c-1.95003,-1.43068 -2.57095,-3.93786 -0.5119,-5.34818c0.70358,-0.48305 1.51842,-0.86209 2.40188,-1.11726c1.7421,-0.50138 3.71078,-0.44996 5.31767,0.61474c2.38246,1.56807 1.33665,4.11189 -0.42121,5.7267c-1.13682,1.03439 -2.5873,1.38944 -3.97961,1.22911z" id="Path 1" fill="url(#color-10)" fill-rule="evenodd"/><path d="M945.22609,409.71387l-0.05,-0.03873l-7.37557,5.51948l0.04997,0.03871z" id="Path 1" fill="#53345f" fill-rule="nonzero"/><path d="M931.43638,411.85958l0.03478,-0.04756c8.88144,3.80252 11.11332,7.69744 11.13508,7.7357l-0.0657,0.02187c-0.02555,-0.03658 -2.25136,-3.91443 -11.10417,-7.71002z" id="Path 1" fill="#53345f" fill-rule="nonzero"/><path d="M933.35398,409.60429l0.01496,-0.0531c0.03511,0.00492 3.56027,0.59972 7.52689,3.3624l-0.05065,0.03781c-3.94771,-2.7551 -7.45682,-3.3414 -7.49119,-3.34712z" id="Path 1" fill="#53345f" fill-rule="nonzero"/><path d="M933.3461,419.82559l3.08284,-2.45934l1.07215,0.49656l-3.48672,2.48128z" id="Path 1" fill="#31165f" fill-rule="evenodd"/><path d="M927.45178,418.22912c0,0 3.38718,2.16694 6.13479,4.71862l-1.61228,0.92218l-5.5972,-4.58343z" id="Path 1" fill="url(#color-11)" fill-rule="evenodd"/><path d="M926.91071,418.76478c1.13169,0.30679 2.15006,0.81199 2.97384,1.4751c1.35498,1.09686 2.46518,3.41844 2.46518,3.41844l1.23684,-0.71057c0,0 -2.96617,-2.8029 -6.13479,-4.71862z" id="Path 1" fill="#31165f" fill-rule="evenodd" opacity="0.5"/><path d="M954.60545,404.4303c-0.00825,0.62182 -0.1502,1.23988 -0.42023,1.82959l0.7666,0.16068c0,0 0.54041,-0.96749 0.17072,-1.74351z" id="Path 1" fill="#ffffff" fill-rule="nonzero"/><path d="M946.43453,404.23858l-0.31828,0.84472l-0.6375,-0.12955l0.3118,-0.66984z" id="Path 1" fill="#ffffff" fill-rule="nonzero"/><path d="M950.63333,398.49883c0,0 5.99438,1.49818 9.04942,7.01177l0.37317,-1.15795c0,0 -1.53893,-3.34993 -7.33108,-6.19514z" id="Path 1" fill="url(#color-12)" fill-rule="evenodd" opacity="0.5" style="mix-blend-mode: multiply"/><path d="M940.21145,413.14962c-0.03011,0.02243 -0.06563,0.0401 -0.10443,0.0519c-0.03892,0.01209 -0.08044,0.01814 -0.12207,0.01779c-0.04168,-0.00037 -0.08288,-0.00671 -0.12105,-0.01905c-0.03808,-0.01264 -0.07261,-0.03053 -0.10128,-0.05346c-0.05878,-0.04523 -0.09134,-0.10644 -0.09042,-0.17077c0.00084,-0.06403 0.03497,-0.12547 0.09506,-0.17133c0.06087,-0.04471 0.14232,-0.06965 0.22641,-0.06906c0.0842,0.00031 0.16407,0.02644 0.22242,0.07189c0.02922,0.02241 0.05235,0.04885 0.06791,0.07834c0.01564,0.02918 0.02342,0.06069 0.02296,0.09254c-0.00034,0.03156 -0.00901,0.0631 -0.02542,0.09254c-0.01641,0.02944 -0.04025,0.05619 -0.07009,0.07869z" id="Path 1" fill="url(#color-13)" fill-rule="evenodd"/><path d="M940.16683,413.11502c-0.04937,0.03491 -0.1142,0.05379 -0.18093,0.05306c-0.06666,-0.00104 -0.12987,-0.02173 -0.17629,-0.05771c-0.04642,-0.03598 -0.07237,-0.08448 -0.07235,-0.13528c0.00018,-0.05108 0.02619,-0.10003 0.07269,-0.13688c0.04937,-0.03491 0.11423,-0.05378 0.18097,-0.05305c0.06663,0.00103 0.12987,0.02173 0.17626,0.0577c0.04646,0.03599 0.0724,0.08449 0.07235,0.13528c-0.00006,0.05079 -0.02619,0.10003 -0.07269,0.13688z" id="Path 1" fill="url(#color-14)" fill-rule="evenodd"/><path d="M941.33129,412.31166c-0.0612,0.04432 -0.14273,0.06892 -0.22662,0.06805c-0.08381,-0.00117 -0.1634,-0.02725 -0.22125,-0.0729c-0.05862,-0.04551 -0.09094,-0.10699 -0.08987,-0.17129c0.00095,-0.06401 0.03528,-0.12572 0.09541,-0.17157c0.06104,-0.04372 0.14217,-0.06809 0.22556,-0.06702c0.08351,0.00078 0.16265,0.02675 0.22043,0.07207c0.02954,0.02217 0.05285,0.04865 0.06856,0.07817c0.01579,0.02922 0.02373,0.06077 0.02338,0.09264c-0.00038,0.03186 -0.00898,0.06343 -0.02535,0.09288c-0.01653,0.02973 -0.04033,0.05649 -0.07026,0.07897z" id="Path 1" fill="url(#color-15)" fill-rule="evenodd"/><path d="M941.28671,412.27706c-0.04937,0.03491 -0.11423,0.05378 -0.18085,0.05276c-0.06674,-0.00074 -0.12999,-0.02144 -0.17637,-0.05741c-0.04646,-0.03599 -0.0724,-0.08449 -0.07223,-0.13557c0.00006,-0.05079 0.02608,-0.09974 0.07269,-0.13688c0.02396,-0.01779 0.05228,-0.03169 0.08334,-0.04112c0.03105,-0.00944 0.06411,-0.01393 0.09728,-0.01328c0.03325,0.00034 0.0659,0.00597 0.09612,0.01616c0.03005,0.01047 0.05711,0.02535 0.07956,0.04364c0.02382,0.01733 0.04274,0.03832 0.05576,0.06146c0.01298,0.02313 0.01959,0.0483 0.01966,0.07356c0.00007,0.02526 -0.0066,0.05056 -0.01939,0.0738c-0.01291,0.02353 -0.03182,0.04505 -0.05556,0.06288z" id="Path 1" fill="url(#color-16)" fill-rule="evenodd"/><path d="M944.85315,403.76004c0.1227,0.09516 0.32372,0.09628 0.44884,0.00283c0.12524,-0.09374 0.1273,-0.24695 0.0046,-0.34211c-0.12258,-0.09546 -0.32359,-0.09657 -0.44884,-0.00283c-0.12524,0.09374 -0.1273,0.24695 -0.0046,0.34211z" id="Path 1" fill="#31165f" fill-rule="nonzero"/><path d="M945.25925,403.72807c-0.04937,0.03491 -0.11423,0.05378 -0.18097,0.05305c-0.06663,-0.00103 -0.12983,-0.02172 -0.17626,-0.0577c-0.04642,-0.03598 -0.0724,-0.08449 -0.07235,-0.13528c0.00018,-0.05108 0.02619,-0.10003 0.07269,-0.13688c0.0494,-0.03459 0.11423,-0.05346 0.18073,-0.05247c0.06647,0.00099 0.12945,0.02163 0.17569,0.05756c0.02374,0.01763 0.04278,0.03833 0.05576,0.06146c0.01298,0.02313 0.01959,0.0483 0.01966,0.07356c0.00007,0.02526 -0.0066,0.05056 -0.01939,0.0738c-0.01291,0.02353 -0.03182,0.04505 -0.05556,0.06288z" id="Path 1" fill="url(#color-17)" fill-rule="evenodd"/><path d="M948.90414,401.66138c-0.06099,0.04501 -0.14244,0.06995 -0.22653,0.06935c-0.08425,-0.00031 -0.16407,-0.02644 -0.22242,-0.07189c-0.02926,-0.02243 -0.05234,-0.04917 -0.0681,-0.07838c-0.01571,-0.0292 -0.02358,-0.06073 -0.02323,-0.0926c0.00038,-0.03186 0.00895,-0.06344 0.02523,-0.0929c0.01633,-0.02945 0.04003,-0.05625 0.06988,-0.07906c0.03018,-0.0221 0.06581,-0.03974 0.10489,-0.05179c0.03892,-0.01177 0.0805,-0.01781 0.12225,-0.01742c0.04171,0.00038 0.08288,0.00703 0.12112,0.01939c0.03824,0.01236 0.07268,0.03055 0.1014,0.05348c0.05878,0.04523 0.09137,0.10645 0.09054,0.17048c-0.00096,0.06432 -0.03505,0.12578 -0.09502,0.17134z" id="Path 1" fill="#31165f" fill-rule="evenodd"/><path d="M948.85674,401.62485c-0.04924,0.03463 -0.11423,0.05378 -0.18085,0.05276c-0.06674,-0.00074 -0.12995,-0.02143 -0.17637,-0.05741c-0.04642,-0.03598 -0.07228,-0.08478 -0.07223,-0.13557c0.00006,-0.05079 0.02619,-0.10003 0.07269,-0.13688c0.04924,-0.03463 0.11423,-0.05378 0.18085,-0.05276c0.06674,0.00074 0.12999,0.02144 0.17637,0.05741c0.04646,0.03599 0.07228,0.08478 0.07223,0.13557c-0.00006,0.05079 -0.02608,0.09974 -0.07269,0.13688z" id="Path 1" fill="url(#color-18)" fill-rule="evenodd"/><path d="M944.84575,407.27447c-0.03015,0.02243 -0.06551,0.03981 -0.10443,0.0519c-0.03896,0.01208 -0.08031,0.01785 -0.12211,0.01777c-0.04164,-0.00037 -0.08285,-0.0067 -0.12093,-0.01934c-0.03816,-0.01234 -0.07257,-0.03053 -0.10136,-0.05316c-0.05878,-0.04523 -0.09125,-0.10674 -0.09042,-0.17077c0.00084,-0.06403 0.03505,-0.12578 0.09502,-0.17134c0.06087,-0.04471 0.14232,-0.06965 0.22653,-0.06935c0.08412,0.0006 0.16407,0.02644 0.2223,0.07218c0.02922,0.02241 0.05238,0.04886 0.06803,0.07804c0.01552,0.02947 0.02334,0.061 0.023,0.09255c-0.00046,0.03185 -0.00913,0.06339 -0.02558,0.09282c-0.01641,0.02944 -0.04021,0.0562 -0.07006,0.0787z" id="Path 1" fill="#31165f" fill-rule="evenodd"/><path d="M944.79854,407.23767c-0.04941,0.0349 -0.11423,0.05378 -0.18097,0.05305c-0.06666,-0.00104 -0.12987,-0.02173 -0.17629,-0.05771c-0.04642,-0.03598 -0.07237,-0.08448 -0.07231,-0.13527c0.00014,-0.05109 0.02615,-0.10004 0.07265,-0.13689c0.04941,-0.0349 0.11423,-0.05378 0.18097,-0.05305c0.06663,0.00103 0.12999,0.02144 0.17629,0.05771c0.04642,0.03598 0.07237,0.08448 0.07231,0.13527c-0.00006,0.05079 -0.02615,0.10004 -0.07265,0.13689z" id="Path 1" fill="url(#color-19)" fill-rule="evenodd"/><path d="M948.01454,410.15011c-0.03015,0.02243 -0.06567,0.04009 -0.10463,0.05217c-0.03884,0.01178 -0.08035,0.01785 -0.12215,0.01776c-0.0418,-0.00008 -0.08292,-0.00671 -0.12116,-0.01907c-0.03828,-0.01237 -0.07292,-0.03029 -0.10183,-0.05295c-0.05858,-0.0455 -0.0909,-0.10698 -0.08987,-0.17129c0.00108,-0.0643 0.03528,-0.12572 0.09545,-0.17156c0.06087,-0.04471 0.14232,-0.06965 0.22653,-0.06935c0.08408,0.00059 0.16407,0.02644 0.2223,0.07218c0.02922,0.02241 0.05235,0.04885 0.06791,0.07834c0.01564,0.02918 0.02342,0.06069 0.02296,0.09254c-0.00034,0.03156 -0.00901,0.0631 -0.02542,0.09254c-0.01641,0.02944 -0.04025,0.05619 -0.07009,0.07869z" id="Path 1" fill="#31165f" fill-rule="evenodd"/><path d="M947.96729,410.1133c-0.04937,0.03491 -0.1142,0.05379 -0.18081,0.05276c-0.06678,-0.00075 -0.12999,-0.02144 -0.17642,-0.05741c-0.04642,-0.03598 -0.07237,-0.08448 -0.07218,-0.13556c0.00006,-0.05079 0.02603,-0.09975 0.07265,-0.13689c0.024,-0.01777 0.05228,-0.03169 0.08338,-0.04111c0.03093,-0.00914 0.06411,-0.01393 0.09728,-0.01328c0.03325,0.00034 0.06586,0.00597 0.09607,0.01615c0.03009,0.01047 0.05714,0.02535 0.07956,0.04364c0.02374,0.01763 0.04278,0.03833 0.05576,0.06146c0.01298,0.02313 0.01959,0.0483 0.01966,0.07356c0.00007,0.02526 -0.0066,0.05056 -0.01935,0.07381c-0.01291,0.02353 -0.03186,0.04503 -0.0556,0.06287z" id="Path 1" fill="url(#color-20)" fill-rule="evenodd"/><path d="M952.01301,410.37156c0.1227,0.09516 0.32356,0.09656 0.44879,0.00282c0.12524,-0.09374 0.12734,-0.24694 0.00464,-0.3421c-0.1227,-0.09516 -0.32359,-0.09657 -0.44884,-0.00283c-0.12524,0.09374 -0.1273,0.24695 -0.0046,0.34211z" id="Path 1" fill="#31165f" fill-rule="nonzero"/><path d="M952.41734,410.3395c-0.04941,0.0349 -0.11423,0.05378 -0.18097,0.05305c-0.06666,-0.00104 -0.12999,-0.02144 -0.17629,-0.05771c-0.04642,-0.03598 -0.07237,-0.08448 -0.07231,-0.13527c0.00002,-0.0508 0.02615,-0.10004 0.07265,-0.13689c0.04941,-0.0349 0.11423,-0.05378 0.18085,-0.05276c0.06674,0.00074 0.12999,0.02144 0.17637,0.05741c0.04646,0.03599 0.0724,0.08449 0.07235,0.13528c-0.00018,0.05108 -0.02619,0.10003 -0.07265,0.13689z" id="Path 1" fill="url(#color-21)" fill-rule="evenodd"/><path d="M956.12651,407.08783c-0.03015,0.02243 -0.06563,0.0401 -0.10455,0.05219c-0.03884,0.01178 -0.08031,0.01785 -0.12199,0.01748c-0.04176,-0.00007 -0.08285,-0.0067 -0.12102,-0.01904c-0.03821,-0.01235 -0.07261,-0.03053 -0.1014,-0.05317c-0.05878,-0.04523 -0.09125,-0.10674 -0.09042,-0.17077c0.00096,-0.06432 0.03505,-0.12578 0.09506,-0.17133c0.06075,-0.04474 0.14199,-0.06974 0.22592,-0.06949c0.08386,0.00054 0.16374,0.02605 0.22205,0.07148c0.02949,0.02216 0.05273,0.04894 0.06852,0.07815c0.01571,0.02952 0.02373,0.06077 0.02338,0.09264c-0.00034,0.03187 -0.00895,0.06344 -0.02547,0.09317c-0.01637,0.02945 -0.04021,0.0562 -0.07009,0.07869z" id="Path 1" fill="#31165f" fill-rule="evenodd"/><path d="M956.0819,407.05322c-0.04937,0.03491 -0.11423,0.05378 -0.18097,0.05305c-0.06663,-0.00103 -0.12995,-0.02143 -0.17626,-0.0577c-0.04642,-0.03598 -0.0724,-0.08449 -0.07235,-0.13528c0.00006,-0.05079 0.02619,-0.10003 0.07269,-0.13688c0.04937,-0.03491 0.11423,-0.05378 0.18097,-0.05305c0.06663,0.00103 0.12987,0.02173 0.17626,0.0577c0.04642,0.03598 0.0724,0.08449 0.07235,0.13528c-0.00018,0.05108 -0.02619,0.10003 -0.07269,0.13688z" id="Path 1" fill="url(#color-22)" fill-rule="evenodd"/><path d="M956.44917,404.17674c-0.02999,0.02214 -0.06551,0.03981 -0.10443,0.0519c-0.0388,0.0118 -0.08031,0.01785 -0.12207,0.01779c-0.04168,-0.00037 -0.08276,-0.007 -0.12093,-0.01934c-0.03821,-0.01235 -0.07261,-0.03053 -0.1014,-0.05317c-0.05878,-0.04523 -0.09122,-0.10673 -0.09042,-0.17077c0.00084,-0.06403 0.03509,-0.12577 0.09506,-0.17133c0.06099,-0.04501 0.14244,-0.06995 0.22653,-0.06935c0.08408,0.00059 0.16407,0.02644 0.22227,0.07217c0.02934,0.02212 0.05238,0.04886 0.06803,0.07804c0.01556,0.02948 0.02346,0.06071 0.023,0.09255c-0.00046,0.03185 -0.00913,0.06339 -0.02554,0.09283c-0.01644,0.02943 -0.04013,0.0559 -0.07009,0.07869z" id="Path 1" fill="#31165f" fill-rule="evenodd"/><path d="M956.40196,404.13994c-0.04937,0.03491 -0.11423,0.05378 -0.18097,0.05305c-0.06663,-0.00103 -0.12987,-0.02173 -0.17626,-0.0577c-0.04642,-0.03598 -0.0724,-0.08449 -0.07235,-0.13528c0.00006,-0.05079 0.02619,-0.10003 0.07269,-0.13688c0.04937,-0.03491 0.1142,-0.05379 0.18097,-0.05305c0.06663,0.00103 0.12983,0.02172 0.17626,0.0577c0.04642,0.03598 0.07237,0.08448 0.07235,0.13528c-0.00018,0.05108 -0.02619,0.10003 -0.07269,0.13688z" id="Path 1" fill="url(#color-23)" fill-rule="evenodd"/><path d="M953.82531,401.64536c-0.06099,0.04501 -0.14232,0.06965 -0.22653,0.06935c-0.08408,-0.00059 -0.16407,-0.02644 -0.22227,-0.07217c-0.02934,-0.02212 -0.05238,-0.04886 -0.06807,-0.07805c-0.01552,-0.02947 -0.02342,-0.06069 -0.02296,-0.09254c0.00046,-0.03185 0.00913,-0.06339 0.02554,-0.09283c0.01641,-0.02944 0.04025,-0.05619 0.07009,-0.07869c0.03003,-0.02214 0.06567,-0.04009 0.1045,-0.05188c0.03892,-0.01209 0.08047,-0.01814 0.12227,-0.01806c0.04168,0.00037 0.08292,0.00671 0.1212,0.01909c0.03824,0.01236 0.07289,0.03028 0.1018,0.05294c0.05858,0.0455 0.09094,0.10699 0.08987,0.17129c-0.00108,0.0643 -0.0354,0.12602 -0.09545,0.17156z" id="Path 1" fill="#31165f" fill-rule="evenodd"/><path d="M953.77809,401.60857c-0.024,0.01777 -0.05244,0.03197 -0.08349,0.0414c-0.03093,0.00914 -0.06411,0.01393 -0.09728,0.01328c-0.03325,-0.00034 -0.06586,-0.00597 -0.09595,-0.01644c-0.03021,-0.01018 -0.05726,-0.02507 -0.07956,-0.04364c-0.02386,-0.01734 -0.04289,-0.03804 -0.05587,-0.06118c-0.01286,-0.02342 -0.01959,-0.0483 -0.01966,-0.07356c-0.00007,-0.02526 0.0066,-0.05056 0.01947,-0.07411c0.01279,-0.02324 0.03174,-0.04474 0.05543,-0.06259c0.04941,-0.0349 0.11423,-0.05378 0.18102,-0.05304c0.06663,0.00103 0.12983,0.02172 0.17626,0.0577c0.04642,0.03598 0.07237,0.08448 0.07231,0.13527c-0.00014,0.05109 -0.02615,0.10004 -0.07265,0.13689z" id="Path 1" fill="url(#color-24)" fill-rule="evenodd"/><path d="M922.84696,419.10627l0.16313,0.12688l5.93219,-4.68829l-0.16884,-0.12117z" id="Path 1" fill="#6f2561" fill-rule="evenodd"/><path d="M938.3549,421.86143l-0.15589,-0.13096l-6.20589,4.47544l0.11058,0.08597z" id="Path 1" fill="#6f2561" fill-rule="evenodd"/><path d="M938.61217,416.75921l0.58519,0.45423l-10.15167,6.70484l-0.40795,-0.31642z" id="Path 1" fill="url(#color-25)" fill-rule="evenodd"/><path d="M938.61217,416.75921l-2.5249,1.26806l-7.44952,5.5746z" id="Path 1" fill="#ff4c61" fill-rule="evenodd"/><path d="M938.88551,417.41963l-4.85531,5.81765l-1.33556,-1.15756l-1.53677,1.12274l-0.47281,-0.36689z" id="Path 1" fill="#31165f" fill-rule="evenodd" opacity="0.5"/><path d="M948.36045,399.51971c0,0 0.60018,-0.53765 1.41423,-0.52384l0.31621,0.2706c-0.51219,0.14868 -1.03381,0.27663 -1.56275,0.3834z" id="Path 1" fill="#ffffff" fill-rule="nonzero"/><g id="Group 1" fill="#ffffff" fill-rule="nonzero" style="mix-blend-mode: soft-light"><path d="M944.18462,418.3528l3.45725,-1.65411l0.17045,0.13208l-3.42609,1.67858z" id="Path 1" style="mix-blend-mode: normal"/></g><path d="M957.62551,409.37567c0,0 1.25231,0.6392 -0.74025,0.98104z" id="Path 1" fill="url(#color-26)" fill-rule="evenodd"/><path d="M945.72722,399.92332c0,0 -1.24934,-0.52699 -1.2563,0.51723z" id="Path 1" fill="url(#color-27)" fill-rule="evenodd"/><g id="Group 1" fill="#ffffff" fill-rule="evenodd" opacity="0.5" style="mix-blend-mode: soft-light"><path d="M928.03606,418.4256c0,0 5.76026,-8.37966 11.00721,-13.89872l-0.39215,-0.10379c0,0 -8.4025,8.20027 -11.56702,13.40275z" id="Path 1" style="mix-blend-mode: normal"/></g><g id="Group 1" fill="#ffffff" fill-rule="evenodd" style="mix-blend-mode: soft-light"><path d="M948.38168,416.28792l2.06183,-1.07385l0.16235,0.12606l-2.06183,1.07385z" id="Path 1" style="mix-blend-mode: normal"/></g><g id="Group 1" fill="#ffffff" fill-rule="evenodd" style="mix-blend-mode: soft-light"><path d="M934.76615,410.05999c0,0 2.57651,0.77034 4.42754,1.95414c0,0 -2.06227,-1.01632 -4.42754,-1.95414z" id="Path 1" style="mix-blend-mode: normal"/></g><g id="Group 1" fill="#ffffff" fill-rule="evenodd" style="mix-blend-mode: soft-light"><path d="M944.59738,410.27144l-6.42305,4.87065c0,0 2.4545,-1.6681 6.42305,-4.87065z" id="Path 1" style="mix-blend-mode: normal"/></g><g id="Group 1" fill="#ffffff" fill-rule="evenodd" style="mix-blend-mode: soft-light"><path d="M932.99695,412.63237c0,0 5.47972,2.32561 8.70975,6.06792c-0.00459,0.00341 -2.24172,-2.88395 -8.70975,-6.06792z" id="Path 1" style="mix-blend-mode: normal"/></g><path d="M950.9144,400.65901c0,0 0.33858,0.62247 1.76981,0.06422c-0.58318,-0.0764 -1.17757,-0.09788 -1.76981,-0.06422z" id="Path 1" fill="#ffffff" fill-rule="evenodd"/><g id="Group 1" fill="#ffffff" fill-rule="evenodd" style="mix-blend-mode: soft-light"><path d="M946.051,409.85416c0,0 1.45288,1.01534 4.61278,1.13935c0.00459,-0.00341 -2.36772,0.27872 -4.61278,-1.13935z" id="Path 1" style="mix-blend-mode: normal"/></g><g id="Group 1" fill="#ffffff" fill-rule="evenodd" style="mix-blend-mode: soft-light"><path d="M946.76799,408.52202c0,0 0.54339,1.42936 2.58064,1.16017c-0.00268,0.00193 -1.22578,-0.0579 -2.58064,-1.16017z" id="Path 1" style="mix-blend-mode: normal"/></g><g id="Group 1" fill="#ffffff" fill-rule="evenodd" opacity="0.36" style="mix-blend-mode: soft-light"><g id="Group 1" style="mix-blend-mode: normal"><path d="M943.76459,410.41178c-0.12115,-0.01811 -0.32767,-0.07291 -0.41597,0.02842c-0.03322,0.04951 -0.06275,0.1002 -0.08856,0.15207c-0.03075,0.04338 -0.06712,0.08417 -0.10873,0.12215c-0.0681,0.06221 -0.11152,0.13749 -0.12522,0.2174c-0.00301,0.05266 0.06773,0.05273 0.12514,0.04237c0.06285,-0.00527 0.12298,-0.023 0.17424,-0.05141c0.05938,-0.04346 0.12437,-0.08211 0.19388,-0.11525c0.02752,-0.01248 0.06474,-0.01442 0.09401,-0.02811c0.03405,-0.02056 0.06486,-0.04347 0.09221,-0.0691c0.04964,-0.039 0.08214,-0.089 0.09272,-0.14248c0.01065,-0.05378 -0.00115,-0.10826 -0.03369,-0.15605z" id="Path 1"/></g><g id="Group 1" style="mix-blend-mode: normal"><path d="M942.54822,410.87881c0.00795,-0.0135 0.0209,-0.02489 0.03718,-0.03262c0.0164,-0.00803 0.03536,-0.01195 0.05457,-0.01166c0.107,0.08322 -0.0731,0.27515 -0.21438,0.22842c-0.16483,-0.05346 -0.01698,-0.18574 0.08972,-0.21124z" id="Path 1"/></g><g id="Group 1" style="mix-blend-mode: normal"><path d="M939.20421,410.38502c0.08289,0.02237 0.16713,0.03002 0.21394,0.08878c0.03787,0.04902 0.05375,0.10638 0.04545,0.16325c-0.0142,0.06925 -0.04791,0.13591 -0.09855,0.19481c-0.01497,0.03201 -0.04171,0.06001 -0.07695,0.08062c-0.16117,0.07041 -0.39692,0.02515 -0.54532,-0.03377c-0.08815,-0.03061 -0.17135,-0.06871 -0.24778,-0.11387c-0.04737,-0.03652 -0.10567,-0.06502 -0.16034,-0.09492c-0.04991,-0.01953 -0.09377,-0.04693 -0.12888,-0.08029c-0.01962,-0.03457 -0.03208,-0.071 -0.03671,-0.1085c-0.01042,-0.04938 -0.00489,-0.09987 0.01619,-0.1474c0.02108,-0.04753 0.05711,-0.09064 0.10491,-0.1256c0.17311,-0.12005 0.50208,-0.06825 0.70327,-0.01629c0.16225,0.04327 0.40446,0.12581 0.21078,0.19318z" id="Path 1"/></g><g id="Group 1" style="mix-blend-mode: normal"><path d="M939.94303,410.61277c-0.06229,0.02362 -0.09036,0.02415 -0.08329,0.07596c0.00606,0.01738 0.017,0.03333 0.03202,0.04703c0.01514,0.01341 0.03389,0.02445 0.05516,0.03193c0.07645,0.02983 0.23717,0.0197 0.25691,-0.05625c0.00811,-0.03871 0.01159,-0.11874 -0.0157,-0.15285c-0.04328,-0.02727 -0.09797,-0.04215 -0.1546,-0.04151c-0.05667,0.00064 -0.11147,0.01639 -0.15484,0.04471z" id="Path 1"/></g><g id="Group 1" style="mix-blend-mode: normal"><path d="M940.44898,413.49278c-0.0322,0.013 -0.06113,0.02996 -0.08549,0.05052c-0.06454,0.04834 -0.12897,0.09639 -0.19445,0.14547c-0.12169,0.09104 -0.26205,0.16882 -0.38655,0.26209c-0.08675,0.06813 -0.16596,0.14151 -0.23685,0.21938c-0.03927,0.03917 -0.07582,0.0796 -0.10968,0.12162c0.00987,0.00739 0.03654,-0.00976 0.05105,-0.01375c0.04933,-0.01383 0.09607,-0.0353 0.14527,-0.04629c0.11206,-0.02394 0.22785,-0.05083 0.33734,-0.08111c0.01939,-0.00798 0.03984,-0.01411 0.0611,-0.01846c0.02723,-0.00265 0.05892,-0.00043 0.08617,-0.0018c0.05138,-0.00186 0.10207,-0.00994 0.15019,-0.02406c0.1075,-0.03936 0.20253,-0.09599 0.27842,-0.16631c0.02852,-0.02121 0.04726,-0.04754 0.07398,-0.06885c0.03081,-0.02291 0.0599,-0.0475 0.08686,-0.07321c0.05152,-0.0571 0.08805,-0.12151 0.10742,-0.18924c0.02794,-0.07662 0.09937,-0.19398 0.03569,-0.27134c-0.02997,-0.03761 -0.09031,-0.01546 -0.12974,0.0045c-0.0394,0.01996 -0.091,0.05724 -0.13962,0.08402c-0.04873,0.02707 -0.15134,0.07396 -0.13113,0.06681z" id="Path 1"/></g><g id="Group 1" style="mix-blend-mode: normal"><path d="M941.11066,413.12816c0.04831,-0.00895 0.13411,-0.03641 0.16661,0.01138c0.03254,0.04779 -0.0291,0.09105 -0.06957,0.1146c-0.09731,0.05386 -0.11867,-0.09199 -0.0525,-0.13069z" id="Path 1"/></g><g id="Group 1" style="mix-blend-mode: normal"><path d="M941.3897,414.15704c-0.04772,0.00813 -0.09068,0.02824 -0.12181,0.05714c-0.01935,0.02045 -0.02782,0.04597 -0.02338,0.07064c0.00429,0.02496 0.02111,0.04738 0.04676,0.0629c0.07587,0.05877 0.14508,0.08724 0.23584,0.0424c0.03068,-0.02038 0.05537,-0.04535 0.07263,-0.07363c0.01714,-0.02799 0.02633,-0.05845 0.02699,-0.0893c-0.00214,-0.0251 -0.01503,-0.04885 -0.03659,-0.0679c-0.04642,-0.03598 -0.10194,-0.02837 -0.1593,-0.01671z" id="Path 1"/></g><g id="Group 1" style="mix-blend-mode: normal"><path d="M940.6637,417.30621c0.17192,0.04423 0.33591,0.10421 0.4887,0.17821c0.12353,0.07458 0.24147,0.15426 0.35299,0.23917c0.17506,0.09896 0.35929,0.18822 0.5512,0.26743c0.16818,0.07021 0.31063,0.1709 0.41448,0.29365c0.0414,0.05048 0.06878,0.10698 0.08053,0.16593c0.01159,0.05923 0.00734,0.11961 -0.01259,0.17763c-0.03244,0.06855 -0.07987,0.13267 -0.14015,0.18934c-0.03229,0.02417 -0.05553,0.05106 -0.08234,0.0765c-0.01347,0.01766 -0.02937,0.03411 -0.04738,0.04912c-0.03039,0.02269 -0.04289,0.01309 -0.07044,-0.00862c-0.05188,-0.03501 -0.08793,-0.08169 -0.10327,-0.13348c-0.03432,-0.08814 -0.08873,-0.1707 -0.16072,-0.24423c-0.06557,-0.07332 -0.12293,-0.1473 -0.19487,-0.2173l-0.20685,-0.20697c-0.05777,-0.06001 -0.11348,-0.12178 -0.17301,-0.18188c-0.05941,-0.06039 -0.12539,-0.11304 -0.18864,-0.16888c-0.06318,-0.05615 -0.11238,-0.08734 -0.16856,-0.13101c-0.03566,-0.02774 -0.06319,-0.05871 -0.09885,-0.08645c-0.02756,-0.02139 -0.0529,-0.04419 -0.07558,-0.0686c-0.02511,-0.02146 -0.05161,-0.04197 -0.07944,-0.06151c-0.03454,-0.04026 -0.06322,-0.083 -0.08521,-0.12803z" id="Path 1"/></g><g id="Group 1" style="mix-blend-mode: normal"><path d="M941.89586,417.49115c-0.03169,-0.00221 -0.06775,-0.01056 -0.09434,0.00246c-0.01375,0.00768 -0.02585,0.01671 -0.03591,0.02684c-0.04003,0.04762 0.04195,0.11547 0.08299,0.14733c0.11543,0.09668 0.27512,0.15597 0.44708,0.16603c0.05893,0.00276 0.11808,-0.00496 0.17285,-0.02233c0.05477,-0.01737 0.10373,-0.04407 0.14312,-0.0781c0.08653,-0.09886 0.03314,-0.23294 -0.04194,-0.32636c-0.07509,-0.09341 -0.19548,-0.19092 -0.34055,-0.19124c-0.05021,-0.00235 -0.10028,0.00844 -0.14208,0.03009c-0.02755,0.02271 -0.05313,0.04619 -0.07679,0.07107c-0.03875,0.02906 -0.09151,0.03859 -0.10979,0.08229c-0.01434,0.0296 -0.01599,0.06181 -0.00466,0.09191z" id="Path 1"/></g><g id="Group 1" style="mix-blend-mode: normal"><path d="M942.57183,418.02838c0.00628,-0.011 0.01689,-0.02006 0.03034,-0.02622c0.01358,-0.00645 0.02922,-0.00922 0.04473,-0.00819c0.01703,-0.00341 0.035,-0.00245 0.051,0.00285c0.016,0.00529 0.02905,0.0147 0.0373,0.0262c0.00778,0.01011 0.01263,0.02145 0.01426,0.03301c0.00146,0.01185 -0.00024,0.02359 -0.00527,0.03489c-0.00499,0.01131 -0.01306,0.02158 -0.0237,0.03031c-0.01048,0.00844 -0.02341,0.01535 -0.03775,0.02003c-0.02094,0.00378 -0.04272,0.00354 -0.06345,-0.00062c-0.0207,-0.00415 -0.03954,-0.01234 -0.0548,-0.02386c-0.01678,-0.01187 -0.02781,-0.02753 -0.03104,-0.04488c-0.00326,-0.01737 0.00137,-0.03515 0.01306,-0.05034z" id="Path 1"/></g><g id="Group 1" style="mix-blend-mode: normal"><path d="M945.98333,416.81773c-0.04878,-0.02087 -0.10653,-0.02656 -0.16121,-0.01523c-0.01506,0.00067 -0.02969,0.00496 -0.04186,0.01173c-0.01225,0.00707 -0.02164,0.01673 -0.02688,0.02734c-0.02997,0.07487 -0.02388,0.15456 0.01694,0.22535c0.01477,0.02323 0.03545,0.04399 0.06101,0.06076c0.02539,0.01706 0.05517,0.02969 0.08734,0.03778c0.05998,0.00716 0.12119,0.00726 0.18144,0.0001c0.05261,-0.00253 0.10353,-0.00801 0.15903,-0.0169c0.04382,0.00055 0.0869,-0.00962 0.12284,-0.02878c0.03606,-0.01946 0.0631,-0.04708 0.07714,-0.07865c0.00988,-0.03574 0.00815,-0.07257 -0.005,-0.10724c-0.01318,-0.03468 -0.03747,-0.06618 -0.07048,-0.09203c-0.04928,-0.03152 -0.10787,-0.05338 -0.17096,-0.06382c-0.06601,-0.01175 -0.11817,-0.02989 -0.22934,0.03962z" id="Path 1"/></g><g id="Group 1" style="mix-blend-mode: normal"><path d="M945.49048,416.83444c0.03151,0.02837 0.05537,0.06138 0.0705,0.09683c-0.01568,0.01171 -0.00518,0.03235 -0.03085,0.0408c-0.02552,0.00816 -0.07013,-0.02645 -0.08886,-0.04228c-0.0249,-0.02078 -0.03859,-0.0479 -0.03821,-0.07626c0.0011,-0.01029 0.00201,-0.0545 0.02714,-0.03941z" id="Path 1"/></g><g id="Group 1" style="mix-blend-mode: normal"><path d="M940.36231,415.96764c-0.06103,0.01305 -0.1294,0.02759 -0.13527,0.09046c0.00388,0.02774 0.01851,0.05413 0.04217,0.07525c0.02358,0.02143 0.0551,0.0367 0.09049,0.04425c0.03327,0.01057 0.07115,0.02157 0.10146,0.00429c0.03018,-0.01698 0.05618,-0.04196 0.08388,-0.06272c0.06536,-0.04879 0.17843,-0.03286 0.18313,-0.12476c-0.00003,-0.02205 -0.00637,-0.04365 -0.0185,-0.06339c-0.01213,-0.01974 -0.02963,-0.03753 -0.05156,-0.05155c-0.07809,-0.04075 -0.18025,-0.01453 -0.25875,0.01013z" id="Path 1"/></g><g id="Group 1" style="mix-blend-mode: normal"><path d="M932.7664,413.75716c-0.08905,-0.04392 -0.19239,-0.0675 -0.29874,-0.06877l-0.02894,0.02142c-0.03446,0.00961 -0.06592,0.02501 -0.09248,0.04475c-0.02619,0.01983 -0.04687,0.04348 -0.0603,0.06977c-0.07263,0.16981 0.09642,0.27441 0.23579,0.3811c0.139,0.1066 0.31968,0.27364 0.46035,0.06365c0.06088,-0.09328 0.17731,-0.24593 0.15075,-0.35784c-0.01387,-0.06008 -0.05292,-0.06656 -0.11389,-0.08865c-0.08085,-0.03755 -0.17056,-0.06277 -0.26432,-0.07424z" id="Path 1"/></g><g id="Group 1" style="mix-blend-mode: normal"><path d="M934.22602,415.24889c0.06377,-0.01241 0.17608,-0.04619 0.24056,-0.00603c0.06444,0.04015 0.04021,0.0665 0.04924,0.1114c0.02061,0.09871 0.01998,0.20816 -0.15172,0.22373c-0.04445,0.00058 -0.08832,-0.00669 -0.12831,-0.02105c-0.03996,-0.01436 -0.07483,-0.03584 -0.10205,-0.06227c-0.03984,-0.045 -0.06197,-0.15493 0.01305,-0.18646z" id="Path 1"/></g><g id="Group 1" style="mix-blend-mode: normal"><path d="M954.49555,410.86391c-0.1696,0.04385 -0.1805,0.04517 -0.26547,0.15653c-0.078,0.07973 -0.12923,0.1727 -0.1491,0.27067c-0.00301,0.1383 0.13255,0.20672 0.21563,0.30773c0.02043,0.03636 0.05312,0.06789 0.09472,0.09157c0.04172,0.02339 0.09093,0.03797 0.14271,0.04227c0.13603,0.01101 0.27398,0.00265 0.40677,-0.02415c0.20741,-0.05236 0.39783,-0.1387 0.55784,-0.25283c0.15985,-0.11385 0.28553,-0.25318 0.36781,-0.40733c0.09835,-0.18911 0.18516,-0.42689 0.04688,-0.61864c-0.05525,-0.08148 -0.1386,-0.14965 -0.24111,-0.19764c-0.10255,-0.048 -0.22062,-0.07371 -0.34172,-0.07456c-0.12019,0.00671 -0.23687,0.03533 -0.34029,0.0833c-0.10339,0.04799 -0.19056,0.1141 -0.25415,0.1927l-0.08593,0.11337c-0.04626,0.04203 -0.09781,0.08059 -0.15395,0.11522c-0.04629,0.04681 -0.06485,0.10706 -0.00066,0.20179z" id="Path 1"/></g><g id="Group 1" style="mix-blend-mode: normal"><path d="M953.74257,410.95817c0.0157,0.15285 0.0164,0.12362 -0.07639,0.22166c-0.04171,0.04212 -0.03229,0.06506 -0.08908,0.09123c-0.04322,0.01429 -0.09084,0.01829 -0.13687,0.0118c-0.04603,-0.00649 -0.08807,-0.02356 -0.12071,-0.04901c-0.04556,-0.03514 -0.02384,-0.15889 -0.00663,-0.199c0.00904,-0.02507 0.02755,-0.04763 0.0533,-0.065c0.02559,-0.01709 0.0573,-0.02829 0.09119,-0.03227z" id="Path 1"/></g><g id="Group 1" style="mix-blend-mode: normal"><path d="M942.9735,402.55942c-0.11454,0.05179 -0.26192,0.11453 -0.22657,0.24573c0.02621,0.08786 0.17846,0.13841 0.28877,0.14986c0.19402,0.00781 0.38711,-0.03189 0.55121,-0.11344c0.13765,-0.0784 0.12397,-0.28575 0.02897,-0.38057c-0.19443,-0.19323 -0.67083,-0.01615 -0.85643,0.09686z" id="Path 1"/></g><g id="Group 1" style="mix-blend-mode: normal"><path d="M941.77294,403.22406c0.01435,-0.02992 0.03815,-0.12921 0.0803,-0.14726c0.01568,-0.01171 0.04069,0.00366 0.0608,-0.00064c0.03356,-0.00821 0.0691,-0.01118 0.10406,-0.00821c0.03496,0.00297 0.06869,0.01141 0.09876,0.02508c0.06019,0.02958 0.1058,0.07335 0.1296,0.12488c0.02382,0.05152 0.02451,0.10792 0.00207,0.16024c-0.00796,0.03554 -0.03281,0.06814 -0.06971,0.09124c-0.03686,0.02311 -0.08324,0.03507 -0.13074,0.03431c-0.06344,-0.00125 -0.12378,-0.02032 -0.1693,-0.05353c-0.04556,-0.03322 -0.07295,-0.07854 -0.07704,-0.12678z" id="Path 1"/></g><g id="Group 1" style="mix-blend-mode: normal"><path d="M939.44453,419.93901c-0.22769,0.07132 -0.41957,0.19725 -0.54633,0.35838c-0.0902,0.10024 -0.22154,0.22165 -0.15448,0.34963c0.15774,0.29945 0.96917,0.01325 1.21188,-0.09102c0.21177,-0.0897 0.397,-0.21206 0.54359,-0.35901c0.08269,-0.0892 0.20597,-0.29842 0.16117,-0.41167c-0.05761,-0.14593 -0.28228,-0.19693 -0.45323,-0.17767c-0.40882,0.03391 -0.65661,0.29421 -0.99954,0.42707z" id="Path 1"/></g><g id="Group 1" style="mix-blend-mode: normal"><path d="M939.34325,419.79992c-0.07222,-0.04834 -0.15316,-0.08846 -0.24051,-0.11921c-0.05058,-0.0085 -0.13009,-0.02241 -0.18136,-0.0004c-0.02771,0.01755 -0.04924,0.04006 -0.0627,0.0657c-0.01333,0.02535 -0.01817,0.053 -0.01382,0.07988c-0.00081,0.01962 0.00483,0.03882 0.01632,0.05618c0.01146,0.01735 0.0286,0.03186 0.04957,0.04278c0.03504,0.01194 0.0915,0.00103 0.12796,-0.00332c0.06706,-0.00846 0.13278,-0.02297 0.19588,-0.04321c0.03145,-0.00647 0.06182,-0.01605 0.09033,-0.028c0.044,-0.0221 0.03286,-0.05056 0.05253,-0.07892z" id="Path 1"/></g><g id="Group 1" style="mix-blend-mode: normal"><path d="M937.72251,420.77735l0.04496,0.10242c-0.04309,0.02263 -0.07213,0.06479 -0.13085,0.05569c-0.05258,-0.01663 -0.09596,-0.04648 -0.12335,-0.08445c-0.01341,-0.01907 -0.01795,-0.04122 -0.01289,-0.06274c0.00505,-0.02152 0.01941,-0.0412 0.04078,-0.05607c0.04984,-0.03736 0.11555,-0.01705 0.16755,0.01063z" id="Path 1"/></g><g id="Group 1" style="mix-blend-mode: normal"><path d="M931.48932,418.95329c-0.02881,0.00644 -0.05429,0.02004 -0.07244,0.0382c-0.01819,0.01816 -0.02824,0.04044 -0.02866,0.06335c-0.00392,0.03807 0.01119,0.07576 0.04224,0.10563c0.03121,0.02959 0.07616,0.04893 0.12572,0.05432c0.14388,0.01474 0.3769,-0.02371 0.46436,-0.12458c0.05482,-0.06273 0.04757,-0.1919 -0.06257,-0.21418c-0.06136,-0.01419 -0.12472,-0.02309 -0.189,-0.02582c-0.09962,0.00796 -0.19346,0.04089 -0.26683,0.09358z" id="Path 1"/></g><g id="Group 1" style="mix-blend-mode: normal"><path d="M958.00581,404.2888c-0.06163,-0.00147 -0.08869,-0.00709 -0.13826,0.01787c-0.0587,0.02413 -0.10314,0.06466 -0.12397,0.1132c-0.01438,0.12065 0.0262,0.24123 0.11516,0.34073c0.02701,0.0382 0.06534,0.07103 0.11197,0.09587c0.04678,0.02456 0.10045,0.0408 0.15708,0.04687c0.06469,0.01081 0.13191,0.0107 0.19706,-0.00012c0.06516,-0.01081 0.12675,-0.03204 0.18056,-0.06209c0.05724,-0.02574 0.1028,-0.06473 0.12993,-0.11086c0.02717,-0.04612 0.03471,-0.09742 0.02164,-0.14677c-0.01716,-0.10239 -0.06194,-0.20093 -0.1317,-0.28896c-0.02893,-0.03257 -0.06767,-0.0591 -0.11302,-0.07758c-0.04535,-0.01848 -0.09592,-0.02858 -0.14767,-0.02936c-0.10136,-0.00715 -0.2576,0.00113 -0.2588,0.10119z" id="Path 1"/></g><g id="Group 1" style="mix-blend-mode: normal"><path d="M958.39672,405.09112c0.0277,-0.02075 0.05996,-0.04492 0.09313,-0.03023c0.02484,0.01789 0.0445,0.03969 0.05784,0.06386c0.01333,0.02417 0.02017,0.05004 0.01991,0.0765c-0.00436,0.04053 -0.02802,0.07851 -0.06669,0.10695c-0.03266,0.0129 -0.07017,0.01637 -0.10539,0.0095c-0.02687,-0.00174 -0.05227,-0.00985 -0.07253,-0.02317c-0.02019,-0.01362 -0.03427,-0.03157 -0.04019,-0.05147c-0.00746,-0.02856 -0.03325,-0.09493 0.00975,-0.11342z" id="Path 1"/></g><g id="Group 1" style="mix-blend-mode: normal"><path d="M959.67421,400.79362c-0.04627,0.02637 -0.07885,0.0642 -0.09203,0.10685c-0.02437,0.07776 -0.02519,0.15842 -0.00228,0.23561c0.02174,0.10313 0.08647,0.19766 0.18463,0.26989c0.04265,0.02105 0.09259,0.03228 0.14373,0.03228c0.05122,-0.0003 0.10146,-0.01168 0.14473,-0.03332c0.09736,-0.05961 0.16439,-0.14348 0.18918,-0.2368c0.01903,-0.08379 0.01162,-0.16986 -0.02191,-0.25046c-0.0334,-0.08089 -0.09193,-0.15387 -0.17038,-0.21355c-0.1897,-0.12312 -0.46233,0.07137 -0.37568,0.0895z" id="Path 1"/></g><g id="Group 1" style="mix-blend-mode: normal"><path d="M959.80208,401.84985c-0.00125,-0.02745 0.00754,-0.05481 0.02531,-0.07882c0.03789,0.011 0.0745,-0.00418 0.11311,0.00923c0.03621,0.01636 0.06247,0.04288 0.07374,0.07393c0.00869,0.01958 0.0103,0.04072 0.00473,0.06117c-0.00557,0.02044 -0.01803,0.03928 -0.03624,0.05489c-0.04603,0.03441 -0.07143,0.03045 -0.12736,0.01656c-0.05593,-0.0139 -0.05235,-0.00987 -0.06156,-0.04779c-0.00818,-0.02362 -0.0131,-0.04777 -0.01468,-0.0721z" id="Path 1"/></g></g><path d="M933.54808,412.78604c-0.14469,0.10809 -0.3459,0.13217 -0.44849,0.05253c-0.10259,-0.07965 -0.06758,-0.23227 0.07723,-0.34065c0.14481,-0.10838 0.34477,-0.13147 0.44737,-0.05183c0.10259,0.07965 0.06832,0.23148 -0.0761,0.33995z" id="Path 1" fill="url(#color-28)" fill-rule="evenodd"/><path d="M933.50858,412.75549c-0.11412,0.08576 -0.27157,0.10399 -0.35274,0.04112c-0.08105,-0.06316 -0.05402,-0.18249 0.06009,-0.26825c0.11438,-0.08538 0.27157,-0.10399 0.353,-0.04074c0.08118,0.06287 0.0529,0.18319 -0.06035,0.26787z" id="Path 1" fill="#ffffff" fill-rule="evenodd"/><path d="M941.51119,418.13392c-0.05692,0.05138 -0.13777,0.08413 -0.225,0.09079c-0.08735,0.00696 -0.1742,-0.01249 -0.24199,-0.05405c-0.0533,-0.05259 -0.07737,-0.11887 -0.06671,-0.18542c0.0105,-0.06627 0.0548,-0.12729 0.12335,-0.1699c0.05696,-0.05137 0.13785,-0.08411 0.22528,-0.09105c0.08743,-0.00694 0.17452,0.01225 0.24253,0.05385c0.05323,0.05257 0.07697,0.11941 0.06621,0.18594c-0.01065,0.06624 -0.05519,0.12751 -0.12366,0.16983z" id="Path 1" fill="url(#color-29)" fill-rule="evenodd"/><path d="M941.46752,418.09986c-0.04497,0.04072 -0.10853,0.06629 -0.17732,0.07179c-0.06875,0.00551 -0.13721,-0.00969 -0.19067,-0.0425c-0.04187,-0.04132 -0.06057,-0.09389 -0.05225,-0.14597c0.00844,-0.05237 0.04339,-0.10053 0.09724,-0.13376c0.04482,-0.04044 0.1085,-0.06629 0.17729,-0.07179c0.06879,-0.0055 0.13713,0.00999 0.19067,0.0425c0.04191,0.04133 0.0606,0.0939 0.05229,0.14597c-0.00844,0.05237 -0.04343,0.10051 -0.09724,0.13376z" id="Path 1" fill="#ffffff" fill-rule="evenodd"/><path d="M937.56372,415.40987c0.14186,0.11014 0.37445,0.11152 0.51957,0.00289c0.14511,-0.10863 0.14771,-0.28601 0.00584,-0.39615c-0.1419,-0.11015 -0.37462,-0.11124 -0.51969,-0.00261c-0.14499,0.10834 -0.14762,0.28571 -0.00572,0.39585z" id="Path 1" fill="url(#color-30)" fill-rule="nonzero"/><path d="M938.02893,415.37047c-0.05558,0.04082 -0.12983,0.0636 -0.20649,0.06312c-0.07666,-0.00048 -0.14937,-0.02432 -0.20254,-0.06569c-0.05358,-0.04115 -0.0832,-0.09721 -0.08247,-0.15551c0.00081,-0.05861 0.03187,-0.11469 0.08651,-0.15637c0.05558,-0.04082 0.12971,-0.06331 0.20637,-0.06283c0.07666,0.00048 0.1495,0.02403 0.20254,0.06569c0.05358,0.04115 0.0832,0.09721 0.08247,0.15551c-0.00068,0.05832 -0.03175,0.1144 -0.08638,0.15608z" id="Path 1" fill="#ffffff" fill-rule="evenodd"/><path d="M939.85218,415.94552c-0.11678,0.19507 -0.2829,0.37105 -0.48866,0.51774c-0.20576,0.14669 -0.44713,0.26118 -0.71004,0.33681c-0.26308,0.07592 -0.54243,0.11133 -0.8219,0.10421c-0.27956,-0.00682 -0.55364,-0.05615 -0.80648,-0.14466c-0.51493,-0.17596 -0.91504,-0.5008 -1.11377,-0.90336c-0.19862,-0.40285 -0.17978,-0.85127 0.05258,-1.24839c0.11696,-0.19502 0.28301,-0.37071 0.48885,-0.51738c0.2058,-0.14668 0.44717,-0.26117 0.71009,-0.3368c0.26304,-0.07593 0.54232,-0.11135 0.82171,-0.10425c0.27948,0.0068 0.55365,0.05583 0.80645,0.14433c0.51496,0.17598 0.91516,0.50051 1.11377,0.90336c0.19865,0.40286 0.17978,0.85127 -0.05258,1.24839z" id="Path 1" fill="url(#color-31)" fill-rule="nonzero" style="mix-blend-mode: screen"/><path d="M959.0611,410.34962c-0.09315,0.15548 -0.22574,0.29608 -0.38991,0.41309c-0.16413,0.11701 -0.35677,0.20858 -0.56653,0.26903c-0.20981,0.06044 -0.43266,0.08878 -0.65579,0.08351c-0.22297,-0.00555 -0.44177,-0.04465 -0.64355,-0.11528c-0.41088,-0.14072 -0.73006,-0.39987 -0.88843,-0.72152c-0.15841,-0.32166 -0.14335,-0.67957 0.04192,-0.99651c0.09337,-0.15542 0.22604,-0.29569 0.39033,-0.41267c0.16444,-0.11726 0.35703,-0.20852 0.56691,-0.26894c0.20984,-0.06043 0.43277,-0.08875 0.65578,-0.08319c0.22304,0.00557 0.44181,0.04467 0.64375,0.11501c0.41057,0.14096 0.7296,0.40008 0.8879,0.7214c0.15822,0.32161 0.14309,0.67919 -0.04237,0.99609z" id="Path 1" fill="url(#color-32)" fill-rule="nonzero" style="mix-blend-mode: screen"/><path d="M960.95474,399.23009c-0.09315,0.15548 -0.22574,0.29608 -0.38987,0.4131c-0.16417,0.11701 -0.35677,0.20858 -0.56658,0.26902c-0.20976,0.06045 -0.43266,0.08878 -0.65579,0.08351c-0.22297,-0.00555 -0.44177,-0.04465 -0.64355,-0.11528c-0.41135,-0.14019 -0.73096,-0.39943 -0.88943,-0.72111c-0.15852,-0.32169 -0.14312,-0.67983 0.04296,-0.99691c0.09315,-0.15548 0.22562,-0.29579 0.38987,-0.4131c0.16417,-0.11701 0.35664,-0.20829 0.56658,-0.26902c0.20981,-0.06044 0.43266,-0.08878 0.65567,-0.08322c0.22309,0.00526 0.44189,0.04436 0.64367,0.11499c0.411,0.14075 0.73037,0.39994 0.88893,0.72131c0.15845,0.32167 0.14316,0.67984 -0.04246,0.9967z" id="Path 1" fill="url(#color-33)" fill-rule="nonzero" style="mix-blend-mode: screen"/><path d="M945.867,400.29626c-0.04809,0.08026 -0.1166,0.15293 -0.20142,0.21352c-0.08474,0.06029 -0.18422,0.10757 -0.29268,0.13905c-0.10835,0.03118 -0.22342,0.04579 -0.3387,0.04309c-0.11528,-0.00269 -0.22822,-0.02307 -0.33255,-0.05934c-0.21245,-0.07278 -0.37753,-0.20682 -0.45951,-0.37308c-0.08214,-0.16598 -0.07436,-0.35111 0.02145,-0.51492c0.04828,-0.08054 0.11687,-0.15319 0.20169,-0.21345c0.08494,-0.06056 0.18452,-0.10782 0.29299,-0.13897c0.10847,-0.03115 0.22365,-0.04573 0.33901,-0.04302c0.11523,0.003 0.22837,0.0231 0.33267,0.05968c0.21199,0.07299 0.37685,0.20666 0.4586,0.37287c0.08187,0.16592 0.07414,0.35074 -0.02152,0.51459z" id="Path 1" fill="url(#color-34)" fill-rule="nonzero" style="mix-blend-mode: screen"/><path d="M941.93456,418.14077c-0.04484,0.07559 -0.10886,0.14386 -0.18829,0.2009c-0.07935,0.05674 -0.17255,0.10133 -0.27422,0.13086c-0.10165,0.02954 -0.20963,0.04323 -0.31783,0.04089c-0.10809,-0.00263 -0.21421,-0.02142 -0.31207,-0.05556c-0.19882,-0.06771 -0.3533,-0.19291 -0.42981,-0.34832c-0.07642,-0.15571 -0.06876,-0.32873 0.02139,-0.4817c0.04495,-0.07524 0.10884,-0.1429 0.18799,-0.19937c0.07931,-0.05675 0.1722,-0.10077 0.27347,-0.13007c0.1013,-0.0293 0.20881,-0.04277 0.31651,-0.04023c0.10766,0.00253 0.21325,0.02152 0.31066,0.05555c0.19837,0.06728 0.35279,0.19183 0.42988,0.34673c0.07718,0.15461 0.07078,0.32727 -0.01768,0.48032z" id="Path 1" fill="url(#color-35)" fill-rule="nonzero" style="mix-blend-mode: screen"/><path d="M933.99181,412.80749c-0.04503,0.07522 -0.10899,0.14287 -0.1881,0.19934c-0.0795,0.0567 -0.17251,0.1007 -0.274,0.12995c-0.1015,0.02925 -0.20896,0.04274 -0.31686,0.04015c-0.10739,-0.00279 -0.21305,-0.02179 -0.31077,-0.05589c-0.19847,-0.06795 -0.35272,-0.19309 -0.42938,-0.34822c-0.07667,-0.15513 -0.06908,-0.32816 0.0203,-0.48099c0.04503,-0.07522 0.10915,-0.14315 0.18827,-0.19994c0.07938,-0.05642 0.17251,-0.1007 0.274,-0.12995c0.1015,-0.02925 0.20908,-0.04303 0.31686,-0.04015c0.10789,0.00259 0.21355,0.02159 0.31127,0.0557c0.19847,0.06795 0.35272,0.19309 0.42926,0.34851c0.07647,0.1554 0.06895,0.32845 -0.02085,0.48151z" id="Path 1" fill="url(#color-36)" fill-rule="nonzero" style="mix-blend-mode: screen"/></g></g><rect x="2609.86085" y="-794.49465" transform="rotate(37.81968) scale(0.35187,0.34588) skewX(-15.12168)" width="52.3698" height="153.935" id="clip-1 1" fill="none" fill-rule="nonzero"/></g></svg>