<svg version="1.1" xmlns="http://www.w3.org/2000/svg" xmlns:xlink="http://www.w3.org/1999/xlink" width="152.29601" height="133.79523" viewBox="366.70769,420.97665,152.29601,133.79523"><defs><clipPath id="clip-1"><rect x="141.5013" y="139.64872" transform="scale(2.59155,3.01454)" width="58.76638" height="44.3833" id="clip-1" fill="none" fill-rule="nonzero"/></clipPath><clipPath id="clip-2"><rect x="657.49437" y="-10.29055" transform="rotate(42.07968) scale(0.97053,0.97967) skewX(-6.94537)" width="52.3698" height="153.935" id="clip-2" fill="none" fill-rule="nonzero"/></clipPath><linearGradient x1="387.20898" y1="539.36037" x2="420.53515" y2="510.35007" gradientUnits="userSpaceOnUse" id="color-1"><stop offset="0" stop-color="#000000" stop-opacity="0"/><stop offset="1" stop-color="#106d90"/></linearGradient><linearGradient x1="428.37178" y1="524.92542" x2="450.68447" y2="505.89559" gradientUnits="userSpaceOnUse" id="color-2"><stop offset="0" stop-color="#a43440"/><stop offset="1" stop-color="#c73634"/></linearGradient><linearGradient x1="398.7362" y1="499.09536" x2="421.04947" y2="479.6724" gradientUnits="userSpaceOnUse" id="color-3"><stop offset="0" stop-color="#a43440"/><stop offset="1" stop-color="#c73634"/></linearGradient><radialGradient cx="479.10241" cy="462.48724" r="34.80162" gradientUnits="userSpaceOnUse" id="color-4"><stop offset="0" stop-color="#f4bab3"/><stop offset="0.77" stop-color="#8d6fc7"/><stop offset="0.96" stop-color="#b695e5"/></radialGradient><radialGradient cx="497.12506" cy="440.35611" r="9.35455" gradientUnits="userSpaceOnUse" id="color-5"><stop offset="0.02" stop-color="#ab5e75"/><stop offset="0.25" stop-color="#9f577b"/><stop offset="0.67" stop-color="#7f458c"/><stop offset="0.99" stop-color="#61349c"/></radialGradient><linearGradient x1="495.60991" y1="441.65172" x2="498.39761" y2="439.27404" gradientUnits="userSpaceOnUse" id="color-6"><stop offset="0" stop-color="#ffff18"/><stop offset="1" stop-color="#ff7400"/></linearGradient><radialGradient cx="436.61668" cy="491.62156" r="16.52512" gradientUnits="userSpaceOnUse" id="color-7"><stop offset="0.02" stop-color="#8881bc"/><stop offset="0.29" stop-color="#8375b7"/><stop offset="0.77" stop-color="#7555aa"/><stop offset="0.99" stop-color="#6d43a3"/></radialGradient><radialGradient cx="470.23888" cy="463.04451" r="17.57195" gradientUnits="userSpaceOnUse" id="color-8"><stop offset="0.02" stop-color="#8881bc"/><stop offset="0.29" stop-color="#8375b7"/><stop offset="0.77" stop-color="#7555aa"/><stop offset="0.99" stop-color="#6d43a3"/></radialGradient><radialGradient cx="481.84212" cy="452.25254" r="21.86169" gradientUnits="userSpaceOnUse" id="color-9"><stop offset="0.02" stop-color="#725eb0"/><stop offset="0.38" stop-color="#6d52aa"/><stop offset="0.99" stop-color="#61349c"/></radialGradient><linearGradient x1="463.23393" y1="469.50496" x2="482.72544" y2="452.88172" gradientUnits="userSpaceOnUse" id="color-10"><stop offset="0" stop-color="#ffff29"/><stop offset="1" stop-color="#ff7e59"/></linearGradient><radialGradient cx="418.52649" cy="507.39765" r="6.49167" gradientUnits="userSpaceOnUse" id="color-11"><stop offset="0.02" stop-color="#725eb0"/><stop offset="0.38" stop-color="#6d52aa"/><stop offset="0.99" stop-color="#61349c"/></radialGradient><radialGradient cx="486.78173" cy="449.11613" r="11.9633" gradientUnits="userSpaceOnUse" id="color-12"><stop offset="0.02" stop-color="#8881bc"/><stop offset="0.29" stop-color="#8375b7"/><stop offset="0.77" stop-color="#7555aa"/><stop offset="0.99" stop-color="#6d43a3"/></radialGradient><linearGradient x1="445.39754" y1="483.60393" x2="446.57273" y2="482.6019" gradientUnits="userSpaceOnUse" id="color-13"><stop offset="0" stop-color="#8dc7ff"/><stop offset="0.32" stop-color="#5c4d86"/></linearGradient><radialGradient cx="445.46287" cy="483.37577" r="0.64548" gradientUnits="userSpaceOnUse" id="color-14"><stop offset="0.02" stop-color="#8881bc"/><stop offset="0.29" stop-color="#8375b7"/><stop offset="0.77" stop-color="#7555aa"/><stop offset="1" stop-color="#6d43a3"/></radialGradient><linearGradient x1="448.29727" y1="481.1312" x2="449.47489" y2="480.12695" gradientUnits="userSpaceOnUse" id="color-15"><stop offset="0" stop-color="#8dc7ff"/><stop offset="0.32" stop-color="#5c4d86"/></linearGradient><radialGradient cx="448.37465" cy="480.893" r="0.64548" gradientUnits="userSpaceOnUse" id="color-16"><stop offset="0.02" stop-color="#8881bc"/><stop offset="0.29" stop-color="#8375b7"/><stop offset="0.77" stop-color="#7555aa"/><stop offset="1" stop-color="#6d43a3"/></radialGradient><radialGradient cx="458.71726" cy="455.57685" r="0.64548" gradientUnits="userSpaceOnUse" id="color-17"><stop offset="0" stop-color="#f4bab3"/><stop offset="1" stop-color="#8d6fc7"/></radialGradient><radialGradient cx="468.07867" cy="449.35058" r="0.64548" gradientUnits="userSpaceOnUse" id="color-18"><stop offset="0" stop-color="#f4bab3"/><stop offset="1" stop-color="#8d6fc7"/></radialGradient><radialGradient cx="457.52141" cy="465.97497" r="0.64548" gradientUnits="userSpaceOnUse" id="color-19"><stop offset="0" stop-color="#f4bab3"/><stop offset="1" stop-color="#8d6fc7"/></radialGradient><radialGradient cx="465.73965" cy="474.48208" r="0.64548" gradientUnits="userSpaceOnUse" id="color-20"><stop offset="0" stop-color="#f4bab3"/><stop offset="1" stop-color="#8d6fc7"/></radialGradient><radialGradient cx="477.2912" cy="475.13533" r="0.64548" gradientUnits="userSpaceOnUse" id="color-21"><stop offset="0" stop-color="#f4bab3"/><stop offset="1" stop-color="#8d6fc7"/></radialGradient><radialGradient cx="486.82048" cy="465.39824" r="0.64548" gradientUnits="userSpaceOnUse" id="color-22"><stop offset="0" stop-color="#f4bab3"/><stop offset="1" stop-color="#8d6fc7"/></radialGradient><radialGradient cx="487.66636" cy="456.7812" r="0.64548" gradientUnits="userSpaceOnUse" id="color-23"><stop offset="0" stop-color="#f4bab3"/><stop offset="1" stop-color="#8d6fc7"/></radialGradient><radialGradient cx="480.86347" cy="449.29171" r="0.64548" gradientUnits="userSpaceOnUse" id="color-24"><stop offset="0" stop-color="#f4bab3"/><stop offset="1" stop-color="#8d6fc7"/></radialGradient><linearGradient x1="417.85479" y1="515.62178" x2="442.64734" y2="494.47759" gradientUnits="userSpaceOnUse" id="color-25"><stop offset="0" stop-color="#a43411"/><stop offset="1" stop-color="#c73634"/></linearGradient><linearGradient x1="490.38821" y1="473.57612" x2="491.82636" y2="474.84799" gradientUnits="userSpaceOnUse" id="color-26"><stop offset="0" stop-color="#ffff18"/><stop offset="1" stop-color="#ff7400"/></linearGradient><linearGradient x1="458.23419" y1="444.43421" x2="459.58664" y2="445.63062" gradientUnits="userSpaceOnUse" id="color-27"><stop offset="0" stop-color="#ffff18"/><stop offset="1" stop-color="#ff7400"/></linearGradient><linearGradient x1="428.12999" y1="482.69357" x2="429.48951" y2="481.53439" gradientUnits="userSpaceOnUse" id="color-28"><stop offset="0" stop-color="#8dc7ff"/><stop offset="0.32" stop-color="#5c4d86"/></linearGradient><linearGradient x1="448.7142" y1="498.44544" x2="450.0731" y2="497.28705" gradientUnits="userSpaceOnUse" id="color-29"><stop offset="0" stop-color="#8dc7ff"/><stop offset="0.32" stop-color="#5c4d86"/></linearGradient><linearGradient x1="439.69901" y1="490.28794" x2="441.05825" y2="489.12866" gradientUnits="userSpaceOnUse" id="color-30"><stop offset="0" stop-color="#8dc7ff"/><stop offset="0.32" stop-color="#5c4d86"/></linearGradient><radialGradient cx="440.48692" cy="489.88029" r="5.50071" gradientUnits="userSpaceOnUse" id="color-31"><stop offset="0" stop-color="#003cee"/><stop offset="0.06" stop-color="#0036d6"/><stop offset="0.2" stop-color="#00289e"/><stop offset="0.34" stop-color="#001c6d"/><stop offset="0.48" stop-color="#001246"/><stop offset="0.62" stop-color="#000a27"/><stop offset="0.75" stop-color="#000412"/><stop offset="0.88" stop-color="#000104"/><stop offset="1" stop-color="#000000"/></radialGradient><radialGradient cx="491.43908" cy="473.74932" r="4.38876" gradientUnits="userSpaceOnUse" id="color-32"><stop offset="0" stop-color="#ff9a00"/><stop offset="0.09" stop-color="#d68100"/><stop offset="0.23" stop-color="#9e5f00"/><stop offset="0.36" stop-color="#6e4200"/><stop offset="0.5" stop-color="#462a00"/><stop offset="0.63" stop-color="#271800"/><stop offset="0.76" stop-color="#120b00"/><stop offset="0.89" stop-color="#040300"/><stop offset="1" stop-color="#000000"/></radialGradient><radialGradient cx="496.31375" cy="440.94728" r="4.38876" gradientUnits="userSpaceOnUse" id="color-33"><stop offset="0" stop-color="#ff9a00"/><stop offset="0.09" stop-color="#d68100"/><stop offset="0.23" stop-color="#9e5f00"/><stop offset="0.36" stop-color="#6e4200"/><stop offset="0.5" stop-color="#462a00"/><stop offset="0.63" stop-color="#271800"/><stop offset="0.76" stop-color="#120b00"/><stop offset="0.89" stop-color="#040300"/><stop offset="1" stop-color="#000000"/></radialGradient><radialGradient cx="459.03848" cy="444.86705" r="2.26817" gradientUnits="userSpaceOnUse" id="color-34"><stop offset="0" stop-color="#ff9a00"/><stop offset="0.09" stop-color="#d68100"/><stop offset="0.23" stop-color="#9e5f00"/><stop offset="0.36" stop-color="#6e4200"/><stop offset="0.5" stop-color="#462a00"/><stop offset="0.63" stop-color="#271800"/><stop offset="0.76" stop-color="#120b00"/><stop offset="0.89" stop-color="#040300"/><stop offset="1" stop-color="#000000"/></radialGradient><radialGradient cx="449.02355" cy="497.5606" r="2.12056" gradientUnits="userSpaceOnUse" id="color-35"><stop offset="0" stop-color="#003cee"/><stop offset="0.06" stop-color="#0036d6"/><stop offset="0.2" stop-color="#00289e"/><stop offset="0.34" stop-color="#001c6d"/><stop offset="0.48" stop-color="#001246"/><stop offset="0.62" stop-color="#000a27"/><stop offset="0.75" stop-color="#000412"/><stop offset="0.88" stop-color="#000104"/><stop offset="1" stop-color="#000000"/></radialGradient><radialGradient cx="428.34506" cy="481.84238" r="2.12056" gradientUnits="userSpaceOnUse" id="color-36"><stop offset="0" stop-color="#003cee"/><stop offset="0.06" stop-color="#0036d6"/><stop offset="0.2" stop-color="#00289e"/><stop offset="0.34" stop-color="#001c6d"/><stop offset="0.48" stop-color="#001246"/><stop offset="0.62" stop-color="#000a27"/><stop offset="0.75" stop-color="#000412"/><stop offset="0.88" stop-color="#000104"/><stop offset="1" stop-color="#000000"/></radialGradient></defs><g fill="none" fill-rule="none" stroke="none" stroke-width="1" stroke-linecap="butt" stroke-linejoin="miter" stroke-miterlimit="10" stroke-dasharray="" stroke-dashoffset="0" font-family="none" font-weight="none" font-size="none" text-anchor="none" style="mix-blend-mode: normal"><g><g clip-path="url(#clip-1)" id="Group 1"><g id="Group 1"><g id="Group 1"><g clip-path="url(#clip-2)" id="Group 1"><path d="M411.10581,502.08304l-32.17361,29.64594l14.43927,10.91904l32.03734,-27.41223c0,0 -9.67987,-10.24451 -14.303,-13.15275z" id="Path 1" fill="url(#color-1)" fill-rule="nonzero" style="mix-blend-mode: screen"/><path d="M447.5621,504.95557l6.59214,4.01856c0,0 -9.64877,9.77543 -28.09215,13.91653l-0.52463,-0.46482l16.20271,-13.08755l-1.07158,-1.01385z" id="Path 1" fill="url(#color-2)" fill-rule="evenodd"/><path d="M422.20019,482.61839l-4.62378,-6.08131c0,0 -11.426,8.37233 -16.533,24.64118l0.52513,0.47455l15.33939,-14.1162l1.14821,0.96872z" id="Path 1" fill="url(#color-3)" fill-rule="evenodd"/><path d="M496.08468,441.52017c-7.18283,-6.35428 -36.1061,-1.22877 -51.6532,13.60949c-15.54658,14.83746 -32.28491,41.99462 -32.28491,41.99462l9.10843,8.21985l9.29378,8.06013c0,0 31.57343,-14.05405 48.93029,-27.27054c17.35686,-13.21652 23.73996,-38.30228 16.60562,-44.61355z" id="Path 1" fill="url(#color-4)" fill-rule="evenodd"/><path d="M412.1394,497.12617c0,0 11.42828,8.45002 18.40234,16.28001c0,0 -11.31972,-8.20438 -18.40234,-16.28001z" id="Path 1" fill="#31165f" fill-rule="evenodd"/><path d="M478.98983,439.33313c0,0 13.46588,6.18986 18.99876,18.29731c0,0 3.25923,-11.45958 -1.9038,-16.11027c-4.64527,-4.18487 -17.09495,-2.18704 -17.09495,-2.18704z" id="Path 1" fill="url(#color-5)" fill-rule="evenodd"/><path d="M497.81584,457.68969c-5.03027,-11.33137 -18.76694,-18.13711 -18.91585,-18.21509l0.18156,-0.27961c0.13992,0.06521 14.00215,6.93709 19.07715,18.37933z" id="Path 1" fill="#53345f" fill-rule="nonzero"/><path d="M493.08624,439.87575l5.10255,4.99528c0,0 -0.73823,-4.10637 -5.10255,-4.99528z" id="Path 1" fill="#53345f" fill-rule="evenodd"/><path d="M494.09795,440.31417c1.16555,0.74511 2.21043,1.62168 3.10726,2.60832c0,0 2.02141,-2.75237 1.18991,-3.6463c-0.8317,-0.89305 -4.29715,1.03798 -4.29715,1.03798z" id="Path 1" fill="url(#color-6)" fill-rule="evenodd"/><path d="M423.85412,479.74043c0,0 20.72418,9.29868 28.82515,22.81537c-8.40039,4.50527 -22.13966,10.84791 -22.13966,10.84791c0,0 -6.02234,-7.08273 -18.40184,-16.27895c0.00135,0.00224 5.07684,-9.29121 11.71638,-17.38436z" id="Path 1" fill="url(#color-7)" fill-rule="evenodd" opacity="0.5" style="mix-blend-mode: multiply"/><path d="M483.59291,451.12947c-6.98904,-5.28679 -19.50247,-2.64796 -26.68041,2.96c-7.1776,5.6071 -5.22528,14.64271 1.53609,20.29225c6.76124,5.64954 16.82745,6.53606 23.60106,-0.56672c6.13261,-6.41101 9.31111,-16.81031 1.54327,-22.68556z" id="Path 1" fill="url(#color-8)" fill-rule="evenodd" opacity="0.5" style="mix-blend-mode: multiply"/><path d="M484.68927,450.19442c-6.98904,-5.28679 -19.50258,-2.64799 -26.6801,2.95914c-7.17794,5.60796 -5.22559,14.64357 1.53324,20.29529c6.75914,5.65087 16.82784,6.53524 23.60347,-0.5689c6.1303,-6.4088 9.3087,-16.80813 1.5434,-22.68553z" id="Path 1" fill="#31165f" fill-rule="evenodd"/><path d="M485.45362,449.54273c-6.98891,-5.28676 -19.50247,-2.64796 -26.6801,2.95914c-7.1776,5.6071 -5.22552,14.64357 1.53365,20.29444c6.75873,5.6517 16.82745,6.53606 23.60316,-0.56802c6.13054,-6.40971 9.3087,-16.80813 1.54327,-22.68556z" id="Path 1" fill="url(#color-9)" fill-rule="evenodd"/><path d="M483.42793,452.01747c-6.17013,-4.82841 -15.28175,-2.11872 -20.89696,2.26471c-5.61521,4.38341 -4.04665,11.4568 1.26379,15.89724c5.31044,4.44041 13.18711,5.14999 18.48091,-0.3893c4.80214,-5.02334 7.60805,-12.73871 1.15225,-17.77265z" id="Path 1" fill="#a6345f" fill-rule="evenodd"/><path d="M471.17422,473.32959c-2.7602,-0.41798 -5.29725,-1.55573 -7.27403,-3.26397c-5.05359,-4.22551 -6.66274,-11.63047 -1.32661,-15.79585c1.82336,-1.42669 3.93506,-2.54618 6.22458,-3.29983c4.51473,-1.48083 9.61666,-1.32896 13.78099,1.81563c6.17426,4.63129 3.46399,12.14446 -1.09159,16.9138c-2.94612,3.05507 -6.70511,4.10371 -10.31334,3.63018z" id="Path 1" fill="url(#color-10)" fill-rule="evenodd"/><path d="M459.5564,473.46481l-0.12958,-0.11439l-19.11413,16.30178l0.1295,0.11433z" id="Path 1" fill="#53345f" fill-rule="nonzero"/><path d="M423.81973,479.80216l0.09013,-0.14047c23.01666,11.23074 28.80068,22.73438 28.85707,22.84738l-0.17026,0.06459c-0.06621,-0.10804 -5.8345,-11.56127 -28.77697,-22.77154z" id="Path 1" fill="#53345f" fill-rule="nonzero"/><path d="M428.78928,473.14116l0.03877,-0.15683c0.09099,0.01453 9.2266,1.77127 19.50628,9.93085l-0.13126,0.11167c-10.23067,-8.13719 -19.32469,-9.86882 -19.41377,-9.88572z" id="Path 1" fill="#53345f" fill-rule="nonzero"/><path d="M428.76886,503.32976l7.98932,-7.26366l2.77853,1.46659l-9.036,7.32846z" id="Path 1" fill="#31165f" fill-rule="evenodd"/><path d="M413.49345,498.61459c0,0 8.77803,6.40006 15.89859,13.93644l-4.1783,2.72366l-14.5054,-13.53716z" id="Path 1" fill="url(#color-11)" fill-rule="evenodd"/><path d="M412.09124,500.19666c2.93283,0.9061 5.57198,2.39821 7.70684,4.35671c3.51149,3.23958 6.38863,10.09636 6.38863,10.09636l3.20533,-2.09867c0,0 -7.68697,-8.27836 -15.89859,-13.93644z" id="Path 1" fill="#31165f" fill-rule="evenodd" opacity="0.5"/><path d="M483.86344,457.85979c-0.02138,1.83654 -0.38925,3.66198 -1.08905,5.40369l1.98668,0.47457c0,0 1.4005,-2.85748 0.44243,-5.14946z" id="Path 1" fill="#ffffff" fill-rule="nonzero"/><path d="M462.68813,457.29354l-0.82484,2.49488l-1.65211,-0.38263l0.80804,-1.97837z" id="Path 1" fill="#ffffff" fill-rule="nonzero"/><path d="M473.56951,440.34119c0,0 15.53471,4.42487 23.45199,20.70926l0.96709,-3.42c0,0 -3.98821,-9.89402 -18.99883,-18.29734z" id="Path 1" fill="url(#color-12)" fill-rule="evenodd" opacity="0.5" style="mix-blend-mode: multiply"/><path d="M446.56073,483.61229c-0.07803,0.06625 -0.17008,0.11844 -0.27064,0.15329c-0.10086,0.03571 -0.20846,0.05358 -0.31635,0.05254c-0.10802,-0.00109 -0.21479,-0.01982 -0.31371,-0.05626c-0.09869,-0.03733 -0.18817,-0.09017 -0.26247,-0.15789c-0.15233,-0.13359 -0.23671,-0.31437 -0.23433,-0.50437c0.00218,-0.18911 0.09063,-0.37058 0.24635,-0.50602c0.15775,-0.13205 0.36883,-0.20571 0.58675,-0.20397c0.21821,0.00092 0.42519,0.07809 0.57641,0.21233c0.07572,0.06619 0.13567,0.14428 0.17599,0.23138c0.04053,0.08618 0.06069,0.17925 0.0595,0.27332c-0.00088,0.09321 -0.02335,0.18637 -0.06588,0.27332c-0.04253,0.08695 -0.10431,0.16596 -0.18164,0.23241z" id="Path 1" fill="url(#color-13)" fill-rule="evenodd"/><path d="M446.44509,483.5101c-0.12794,0.10311 -0.29595,0.15887 -0.46889,0.15671c-0.17275,-0.00307 -0.33656,-0.06418 -0.45686,-0.17045c-0.1203,-0.10627 -0.18755,-0.24951 -0.1875,-0.39955c0.00047,-0.15086 0.06787,-0.29544 0.18838,-0.40427c0.12794,-0.10311 0.29603,-0.15884 0.46899,-0.15668c0.17267,0.00304 0.33656,0.06418 0.45679,0.17042c0.1204,0.1063 0.18763,0.24954 0.1875,0.39955c-0.00016,0.15001 -0.06787,0.29544 -0.18838,0.40427z" id="Path 1" fill="url(#color-14)" fill-rule="evenodd"/><path d="M449.46284,481.13738c-0.1586,0.1309 -0.36989,0.20356 -0.5873,0.20099c-0.2172,-0.00346 -0.42346,-0.08048 -0.57338,-0.21531c-0.15192,-0.13441 -0.23568,-0.31599 -0.2329,-0.5059c0.00246,-0.18905 0.09143,-0.37131 0.24726,-0.50673c0.15819,-0.12913 0.36844,-0.2011 0.58455,-0.19794c0.21642,0.0023 0.42151,0.07901 0.57125,0.21286c0.07655,0.06548 0.13696,0.14369 0.17768,0.23088c0.04092,0.0863 0.0615,0.17948 0.06059,0.27361c-0.00098,0.0941 -0.02327,0.18734 -0.0657,0.27432c-0.04284,0.08781 -0.10452,0.16684 -0.18208,0.23324z" id="Path 1" fill="url(#color-15)" fill-rule="evenodd"/><path d="M449.34731,481.03518c-0.12794,0.10311 -0.29603,0.15884 -0.46868,0.15583c-0.17296,-0.00219 -0.33688,-0.06332 -0.45707,-0.16956c-0.1204,-0.1063 -0.18763,-0.24954 -0.18719,-0.40041c0.00016,-0.15001 0.06759,-0.29458 0.18838,-0.40427c0.06209,-0.05254 0.13549,-0.0936 0.21598,-0.12145c0.08047,-0.02788 0.16614,-0.04114 0.25211,-0.03922c0.08617,0.001 0.17078,0.01763 0.2491,0.04773c0.07788,0.03092 0.148,0.07487 0.20618,0.12889c0.06173,0.05118 0.11076,0.11318 0.1445,0.18152c0.03364,0.06831 0.05077,0.14265 0.05095,0.21726c0.00018,0.07461 -0.0171,0.14933 -0.05025,0.21797c-0.03346,0.0695 -0.08246,0.13306 -0.14399,0.18572z" id="Path 1" fill="url(#color-16)" fill-rule="evenodd"/><path d="M458.58991,455.88017c0.31798,0.28105 0.83894,0.28436 1.16319,0.00836c0.32457,-0.27686 0.3299,-0.72937 0.01192,-1.01042c-0.31767,-0.28194 -0.8386,-0.28522 -1.16319,-0.00836c-0.32457,0.27686 -0.3299,0.72937 -0.01192,1.01042z" id="Path 1" fill="#31165f" fill-rule="nonzero"/><path d="M459.64233,455.78575c-0.12794,0.10311 -0.29603,0.15884 -0.46899,0.15668c-0.17267,-0.00304 -0.33646,-0.06415 -0.45679,-0.17042c-0.1203,-0.10627 -0.18763,-0.24954 -0.1875,-0.39955c0.00047,-0.15086 0.06787,-0.29544 0.18838,-0.40427c0.12802,-0.10216 0.29603,-0.15789 0.46837,-0.15497c0.17226,0.00292 0.33548,0.06388 0.45531,0.17c0.06152,0.05207 0.11087,0.11321 0.1445,0.18152c0.03364,0.06831 0.05077,0.14265 0.05095,0.21726c0.00018,0.07461 -0.0171,0.14933 -0.05025,0.21797c-0.03346,0.0695 -0.08246,0.13306 -0.14399,0.18572z" id="Path 1" fill="url(#color-17)" fill-rule="evenodd"/><path d="M469.08824,449.68178c-0.15806,0.13294 -0.36914,0.2066 -0.58706,0.20483c-0.21834,-0.00092 -0.42519,-0.07809 -0.57641,-0.21233c-0.07583,-0.06625 -0.13564,-0.14522 -0.17648,-0.2315c-0.04071,-0.08624 -0.06111,-0.17937 -0.0602,-0.27349c0.00098,-0.0941 0.02319,-0.18737 0.06538,-0.27438c0.04232,-0.08698 0.10374,-0.16613 0.1811,-0.2335c0.07821,-0.06527 0.17055,-0.11737 0.27183,-0.15296c0.10086,-0.03476 0.20862,-0.0526 0.31682,-0.05145c0.10809,0.00112 0.21479,0.02076 0.31389,0.05727c0.0991,0.03651 0.18835,0.09023 0.26278,0.15795c0.15233,0.13359 0.23679,0.3144 0.23464,0.50351c-0.00249,0.18997 -0.09083,0.37149 -0.24625,0.50605z" id="Path 1" fill="#31165f" fill-rule="evenodd"/><path d="M468.9654,449.57389c-0.12761,0.10228 -0.29603,0.15884 -0.46868,0.15583c-0.17296,-0.00219 -0.33677,-0.06329 -0.45707,-0.16956c-0.1203,-0.10627 -0.18732,-0.2504 -0.18719,-0.40041c0.00016,-0.15001 0.06787,-0.29544 0.18838,-0.40427c0.12761,-0.10228 0.29603,-0.15884 0.46868,-0.15583c0.17296,0.00219 0.33688,0.06332 0.45707,0.16956c0.1204,0.1063 0.18732,0.2504 0.18719,0.40041c-0.00016,0.15001 -0.06759,0.29458 -0.18838,0.40427z" id="Path 1" fill="url(#color-18)" fill-rule="evenodd"/><path d="M458.57073,466.26004c-0.07814,0.06625 -0.16977,0.11758 -0.27064,0.15329c-0.10097,0.03568 -0.20813,0.05272 -0.31645,0.05248c-0.10791,-0.00109 -0.21471,-0.01979 -0.3134,-0.05712c-0.09889,-0.03645 -0.18807,-0.09017 -0.26268,-0.15701c-0.15233,-0.13359 -0.23648,-0.31526 -0.23433,-0.50437c0.00218,-0.18911 0.09083,-0.37149 0.24625,-0.50605c0.15775,-0.13205 0.36883,-0.20571 0.58706,-0.20483c0.218,0.00177 0.42519,0.07809 0.5761,0.21318c0.07572,0.06619 0.13575,0.14431 0.1763,0.23049c0.04022,0.08704 0.06049,0.18016 0.05961,0.27335c-0.00119,0.09407 -0.02366,0.18722 -0.06629,0.27414c-0.04253,0.08695 -0.10421,0.16599 -0.18156,0.23244z" id="Path 1" fill="#31165f" fill-rule="evenodd"/><path d="M458.44838,466.15135c-0.12805,0.10308 -0.29603,0.15884 -0.46899,0.15668c-0.17275,-0.00307 -0.33656,-0.06418 -0.45686,-0.17045c-0.1203,-0.10627 -0.18755,-0.24951 -0.18739,-0.39952c0.00036,-0.15089 0.06777,-0.29547 0.18828,-0.4043c0.12805,-0.10308 0.29603,-0.15884 0.46899,-0.15668c0.17267,0.00304 0.33688,0.06332 0.45686,0.17045c0.1203,0.10627 0.18755,0.24951 0.18739,0.39952c-0.00016,0.15001 -0.06777,0.29547 -0.18828,0.4043z" id="Path 1" fill="url(#color-19)" fill-rule="evenodd"/><path d="M466.7828,474.75324c-0.07814,0.06625 -0.17019,0.11841 -0.27115,0.15408c-0.10066,0.03479 -0.20823,0.05272 -0.31656,0.05245c-0.10833,-0.00024 -0.21489,-0.01982 -0.31399,-0.05632c-0.0992,-0.03653 -0.18898,-0.08946 -0.2639,-0.15639c-0.15181,-0.13438 -0.23557,-0.31597 -0.2329,-0.5059c0.0028,-0.18991 0.09143,-0.37131 0.24736,-0.5067c0.15775,-0.13205 0.36883,-0.20571 0.58706,-0.20483c0.2179,0.00174 0.42519,0.07809 0.5761,0.21318c0.07572,0.06619 0.13567,0.14428 0.17599,0.23138c0.04053,0.08618 0.06069,0.17925 0.0595,0.27332c-0.00088,0.09321 -0.02335,0.18637 -0.06588,0.27332c-0.04253,0.08695 -0.10431,0.16596 -0.18164,0.23241z" id="Path 1" fill="#31165f" fill-rule="evenodd"/><path d="M466.66035,474.64452c-0.12794,0.10311 -0.29595,0.15887 -0.46858,0.15583c-0.17306,-0.00222 -0.33688,-0.06332 -0.4572,-0.16956c-0.1203,-0.10627 -0.18755,-0.24951 -0.18706,-0.40038c0.00016,-0.15001 0.06746,-0.29461 0.18828,-0.4043c0.0622,-0.05248 0.13549,-0.0936 0.21608,-0.12142c0.08016,-0.02699 0.16614,-0.04114 0.25211,-0.03922c0.08617,0.001 0.17068,0.01763 0.24897,0.0477c0.07798,0.03092 0.14808,0.07487 0.20618,0.12889c0.06152,0.05207 0.11087,0.11321 0.1445,0.18152c0.03364,0.06831 0.05077,0.14265 0.05095,0.21726c0.00018,0.07461 -0.0171,0.14933 -0.05015,0.218c-0.03346,0.0695 -0.08257,0.133 -0.14409,0.18569z" id="Path 1" fill="url(#color-20)" fill-rule="evenodd"/><path d="M477.14502,475.40729c0.31798,0.28105 0.83852,0.28519 1.16306,0.00833c0.32457,-0.27686 0.33001,-0.72934 0.01202,-1.01039c-0.31798,-0.28105 -0.8386,-0.28522 -1.16319,-0.00836c-0.32457,0.27686 -0.3299,0.72937 -0.01192,1.01042z" id="Path 1" fill="#31165f" fill-rule="nonzero"/><path d="M478.19286,475.3126c-0.12805,0.10308 -0.29603,0.15884 -0.46899,0.15668c-0.17275,-0.00307 -0.33688,-0.06332 -0.45686,-0.17045c-0.1203,-0.10627 -0.18755,-0.24951 -0.18739,-0.39952c0.00005,-0.15004 0.06777,-0.29547 0.18828,-0.4043c0.12805,-0.10308 0.29603,-0.15884 0.46868,-0.15583c0.17296,0.00219 0.33688,0.06332 0.45707,0.16956c0.1204,0.1063 0.18763,0.24954 0.1875,0.39955c-0.00047,0.15086 -0.06787,0.29544 -0.18828,0.4043z" id="Path 1" fill="url(#color-21)" fill-rule="evenodd"/><path d="M487.80534,465.7088c-0.07814,0.06625 -0.17008,0.11844 -0.27095,0.15414c-0.10066,0.03479 -0.20813,0.05272 -0.31614,0.05163c-0.10822,-0.00021 -0.21471,-0.01979 -0.31363,-0.05623c-0.09902,-0.03648 -0.18817,-0.09017 -0.26278,-0.15704c-0.15233,-0.13359 -0.23648,-0.31526 -0.23433,-0.50437c0.00249,-0.18997 0.09083,-0.37149 0.24635,-0.50602c0.15744,-0.13214 0.36797,-0.20598 0.58548,-0.20524c0.21733,0.00159 0.42434,0.07694 0.57545,0.21112c0.07642,0.06545 0.13665,0.14454 0.17757,0.23082c0.04071,0.08719 0.0615,0.17948 0.06059,0.27361c-0.00088,0.09413 -0.02319,0.18737 -0.06601,0.27518c-0.04242,0.08698 -0.10421,0.16599 -0.18164,0.23241z" id="Path 1" fill="#31165f" fill-rule="evenodd"/><path d="M487.68973,465.60658c-0.12794,0.10311 -0.29603,0.15884 -0.46899,0.15668c-0.17267,-0.00304 -0.33677,-0.06329 -0.45679,-0.17042c-0.1203,-0.10627 -0.18763,-0.24954 -0.1875,-0.39955c0.00016,-0.15001 0.06787,-0.29544 0.18838,-0.40427c0.12794,-0.10311 0.29603,-0.15884 0.46899,-0.15668c0.17267,0.00304 0.33656,0.06418 0.45679,0.17042c0.1203,0.10627 0.18763,0.24954 0.1875,0.39955c-0.00047,0.15086 -0.06787,0.29544 -0.18838,0.40427z" id="Path 1" fill="url(#color-22)" fill-rule="evenodd"/><path d="M488.64153,457.1109c-0.07772,0.06539 -0.16977,0.11758 -0.27064,0.15329c-0.10055,0.03485 -0.20813,0.05272 -0.31635,0.05254c-0.10802,-0.00109 -0.21448,-0.02067 -0.3134,-0.05712c-0.09902,-0.03648 -0.18817,-0.09017 -0.26278,-0.15704c-0.15233,-0.13359 -0.2364,-0.31523 -0.23433,-0.50437c0.00218,-0.18911 0.09094,-0.37146 0.24635,-0.50602c0.15806,-0.13294 0.36914,-0.2066 0.58706,-0.20483c0.2179,0.00174 0.42519,0.07809 0.57602,0.21315c0.07604,0.06533 0.13575,0.14431 0.1763,0.23049c0.04032,0.08707 0.0608,0.17931 0.05961,0.27335c-0.00119,0.09407 -0.02366,0.18722 -0.06619,0.27417c-0.04261,0.08692 -0.104,0.1651 -0.18164,0.23241z" id="Path 1" fill="#31165f" fill-rule="evenodd"/><path d="M488.51918,457.00221c-0.12794,0.10311 -0.29603,0.15884 -0.46899,0.15668c-0.17267,-0.00304 -0.33656,-0.06418 -0.45679,-0.17042c-0.1203,-0.10627 -0.18763,-0.24954 -0.1875,-0.39955c0.00016,-0.15001 0.06787,-0.29544 0.18838,-0.40427c0.12794,-0.10311 0.29595,-0.15887 0.46899,-0.15668c0.17267,0.00304 0.33646,0.06415 0.45679,0.17042c0.1203,0.10627 0.18755,0.24951 0.1875,0.39955c-0.00047,0.15086 -0.06787,0.29544 -0.18838,0.40427z" id="Path 1" fill="url(#color-23)" fill-rule="evenodd"/><path d="M481.84167,449.63447c-0.15806,0.13294 -0.36883,0.20571 -0.58706,0.20483c-0.2179,-0.00174 -0.42519,-0.07809 -0.57602,-0.21315c-0.07604,-0.06533 -0.13575,-0.14431 -0.17641,-0.23052c-0.04022,-0.08704 -0.06069,-0.17925 -0.0595,-0.27332c0.00119,-0.09407 0.02366,-0.18722 0.06619,-0.27417c0.04253,-0.08695 0.10431,-0.16596 0.18164,-0.23241c0.07782,-0.06539 0.17019,-0.11841 0.27082,-0.15323c0.10086,-0.03571 0.20854,-0.05358 0.31687,-0.05334c0.10802,0.00109 0.21489,0.01982 0.3141,0.05638c0.0991,0.03651 0.1889,0.08943 0.26382,0.15636c0.15181,0.13438 0.23568,0.31599 0.2329,0.5059c-0.0028,0.18991 -0.09174,0.3722 -0.24736,0.5067z" id="Path 1" fill="#31165f" fill-rule="evenodd"/><path d="M481.7193,449.52581c-0.0622,0.05248 -0.1359,0.09442 -0.21637,0.12227c-0.08016,0.02699 -0.16614,0.04114 -0.25211,0.03922c-0.08617,-0.001 -0.17068,-0.01763 -0.24866,-0.04856c-0.07829,-0.03007 -0.14839,-0.07404 -0.20618,-0.12889c-0.06183,-0.05121 -0.11115,-0.11235 -0.14479,-0.1807c-0.03333,-0.06917 -0.05077,-0.14265 -0.05095,-0.21726c-0.00018,-0.07461 0.0171,-0.14933 0.05046,-0.21888c0.03315,-0.06864 0.08226,-0.13214 0.14365,-0.18486c0.12805,-0.10308 0.29603,-0.15884 0.46912,-0.15665c0.17267,0.00304 0.33646,0.06415 0.45679,0.17042c0.1203,0.10627 0.18755,0.24951 0.18739,0.39952c-0.00036,0.15089 -0.06777,0.29547 -0.18828,0.4043z" id="Path 1" fill="url(#color-24)" fill-rule="evenodd"/><path d="M401.55985,501.64373l0.42276,0.38248l15.37354,-14.13302l-0.43756,-0.36527z" id="Path 1" fill="#6f2561" fill-rule="evenodd"/><path d="M441.74939,509.34261l-0.404,-0.38679l-16.08285,13.21821l0.28657,0.25391z" id="Path 1" fill="#6f2561" fill-rule="evenodd"/><path d="M442.41612,494.27321l1.51655,1.34157l-26.30852,19.80274l-1.05722,-0.93455z" id="Path 1" fill="url(#color-25)" fill-rule="evenodd"/><path d="M442.41612,494.27321l-6.5434,3.74521l-19.30578,16.46458z" id="Path 1" fill="#ff4c61" fill-rule="evenodd"/><path d="M443.12449,496.22376l-12.58276,17.18242l-3.46117,-3.41885l-3.98261,3.31601l-1.22531,-1.08361z" id="Path 1" fill="#31165f" fill-rule="evenodd" opacity="0.5"/><path d="M467.67924,443.35636c0,0 1.55539,-1.58795 3.66504,-1.54716l0.81947,0.79922c-1.32736,0.43913 -2.67917,0.81703 -4.04994,1.13237z" id="Path 1" fill="#ffffff" fill-rule="nonzero"/><g id="Group 1" fill="#ffffff" fill-rule="nonzero" style="mix-blend-mode: soft-light"><path d="M456.85738,498.97988l8.95962,-4.88541l0.44173,0.3901l-8.87887,4.95768z" id="Path 1" style="mix-blend-mode: normal"/></g><path d="M491.69007,472.46593c0,0 3.24542,1.88788 -1.91839,2.8975z" id="Path 1" fill="url(#color-26)" fill-rule="evenodd"/><path d="M460.8551,444.54842c0,0 -3.23772,-1.55646 -3.25576,1.52764z" id="Path 1" fill="url(#color-27)" fill-rule="evenodd"/><g id="Group 1" fill="#ffffff" fill-rule="evenodd" opacity="0.5" style="mix-blend-mode: soft-light"><path d="M415.00764,499.19489c0,0 14.92798,-24.74932 28.52569,-41.04986l-1.01627,-0.30654c0,0 -21.77547,24.21949 -29.97647,39.58501z" id="Path 1" style="mix-blend-mode: normal"/></g><g id="Group 1" fill="#ffffff" fill-rule="evenodd" style="mix-blend-mode: soft-light"><path d="M467.73426,492.88126l5.34333,-3.17162l0.42074,0.37232l-5.34333,3.17162z" id="Path 1" style="mix-blend-mode: normal"/></g><g id="Group 1" fill="#ffffff" fill-rule="evenodd" style="mix-blend-mode: soft-light"><path d="M432.44898,474.48707c0,0 6.67714,2.2752 11.47417,5.77155c0,0 -5.34447,-3.0017 -11.47417,-5.77155z" id="Path 1" style="mix-blend-mode: normal"/></g><g id="Group 1" fill="#ffffff" fill-rule="evenodd" style="mix-blend-mode: soft-light"><path d="M457.92707,475.11159l-16.64563,14.38546c0,0 6.36095,-4.92673 16.64563,-14.38546z" id="Path 1" style="mix-blend-mode: normal"/></g><g id="Group 1" fill="#ffffff" fill-rule="evenodd" style="mix-blend-mode: soft-light"><path d="M427.86402,482.08459c0,0 14.20095,6.86869 22.57172,17.9216c-0.0119,0.01007 -5.80952,-8.51774 -22.57172,-17.9216z" id="Path 1" style="mix-blend-mode: normal"/></g><path d="M474.29792,446.72128c0,0 0.87745,1.83846 4.58654,0.18967c-1.51134,-0.22565 -3.05173,-0.28909 -4.58654,-0.18967z" id="Path 1" fill="#ffffff" fill-rule="evenodd"/><g id="Group 1" fill="#ffffff" fill-rule="evenodd" style="mix-blend-mode: soft-light"><path d="M461.69419,473.87915c0,0 3.76521,2.99881 11.95423,3.36507c0.0119,-0.01007 -6.13606,0.8232 -11.95423,-3.36507z" id="Path 1" style="mix-blend-mode: normal"/></g><g id="Group 1" fill="#ffffff" fill-rule="evenodd" style="mix-blend-mode: soft-light"><path d="M463.5523,469.94468c0,0 1.40822,4.22161 6.68785,3.42656c-0.00695,0.0057 -3.17667,-0.17101 -6.68785,-3.42656z" id="Path 1" style="mix-blend-mode: normal"/></g><g id="Group 1" fill="#ffffff" fill-rule="evenodd" opacity="0.36" style="mix-blend-mode: soft-light"><g id="Group 1" style="mix-blend-mode: normal"><path d="M455.76885,475.52608c-0.31397,-0.05349 -0.84917,-0.21534 -1.07801,0.08394c-0.08609,0.14623 -0.16262,0.29594 -0.22951,0.44914c-0.07969,0.12812 -0.17394,0.2486 -0.28178,0.36077c-0.17648,0.18374 -0.28901,0.40608 -0.32451,0.64209c-0.0078,0.15553 0.17553,0.15574 0.32431,0.12514c0.16288,-0.01556 0.31871,-0.06793 0.45155,-0.15184c0.15389,-0.12836 0.32231,-0.24251 0.50245,-0.34039c0.07132,-0.03686 0.16778,-0.04259 0.24363,-0.08302c0.08824,-0.06072 0.16809,-0.12839 0.23897,-0.20409c0.12864,-0.11519 0.21287,-0.26286 0.24029,-0.42081c0.0276,-0.15884 -0.00298,-0.31975 -0.08731,-0.46089z" id="Path 1"/></g><g id="Group 1" style="mix-blend-mode: normal"><path d="M452.61657,476.90545c0.0206,-0.03987 0.05416,-0.07351 0.09635,-0.09634c0.0425,-0.02372 0.09164,-0.03529 0.14142,-0.03444c0.2773,0.24579 -0.18944,0.81266 -0.55558,0.67464c-0.42716,-0.15789 -0.044,-0.54858 0.23251,-0.6239z" id="Path 1"/></g><g id="Group 1" style="mix-blend-mode: normal"><path d="M443.95042,475.44705c0.21481,0.06607 0.43313,0.08866 0.55444,0.26221c0.09814,0.14478 0.1393,0.31419 0.11779,0.48216c-0.0368,0.20453 -0.12416,0.40141 -0.2554,0.57537c-0.0388,0.09454 -0.10809,0.17724 -0.19942,0.23811c-0.41768,0.20796 -1.02864,0.07428 -1.41322,-0.09974c-0.22844,-0.09041 -0.44406,-0.20293 -0.64213,-0.33631c-0.12276,-0.10786 -0.27385,-0.19204 -0.41553,-0.28035c-0.12934,-0.05768 -0.24301,-0.13861 -0.334,-0.23714c-0.05085,-0.1021 -0.08314,-0.2097 -0.09514,-0.32045c-0.027,-0.14584 -0.01267,-0.29497 0.04196,-0.43535c0.05463,-0.14038 0.148,-0.26771 0.27188,-0.37096c0.44862,-0.35457 1.30116,-0.20158 1.82256,-0.04811c0.42048,0.1278 1.04818,0.37158 0.54625,0.57056z" id="Path 1"/></g><g id="Group 1" style="mix-blend-mode: normal"><path d="M445.8651,476.11971c-0.16143,0.06976 -0.23417,0.07133 -0.21585,0.22435c0.0157,0.05133 0.04406,0.09844 0.08298,0.1389c0.03924,0.03961 0.08783,0.07221 0.14295,0.09431c0.19812,0.0881 0.61464,0.05818 0.66579,-0.16613c0.02102,-0.11433 0.03004,-0.3507 -0.04069,-0.45144c-0.11216,-0.08054 -0.25389,-0.12449 -0.40065,-0.1226c-0.14686,0.00189 -0.28888,0.04841 -0.40128,0.13205z" id="Path 1"/></g><g id="Group 1" style="mix-blend-mode: normal"><path d="M447.1763,484.62581c-0.08345,0.0384 -0.15842,0.08849 -0.22155,0.14921c-0.16726,0.14277 -0.33423,0.28469 -0.50393,0.42965c-0.31537,0.26889 -0.67911,0.49861 -1.00176,0.77408c-0.22482,0.20122 -0.43009,0.41795 -0.61381,0.64794c-0.10177,0.11569 -0.19649,0.2351 -0.28424,0.3592c0.02558,0.02183 0.0947,-0.02883 0.1323,-0.04061c0.12784,-0.04085 0.24897,-0.10426 0.37647,-0.13672c0.29041,-0.07071 0.59048,-0.15013 0.87423,-0.23956c0.05025,-0.02357 0.10325,-0.04167 0.15834,-0.05452c0.07057,-0.00783 0.15269,-0.00127 0.22331,-0.00532c0.13315,-0.00549 0.26452,-0.02936 0.38922,-0.07106c0.27859,-0.11625 0.52487,-0.28351 0.72154,-0.4912c0.07391,-0.06264 0.12248,-0.14041 0.19172,-0.20335c0.07985,-0.06766 0.15523,-0.14029 0.2251,-0.21623c0.13352,-0.16864 0.22819,-0.35888 0.27838,-0.55892c0.07241,-0.2263 0.25752,-0.57292 0.09249,-0.8014c-0.07767,-0.11108 -0.23404,-0.04566 -0.33623,0.01329c-0.10211,0.05895 -0.23583,0.16906 -0.36183,0.24815c-0.12629,0.07995 -0.3922,0.21844 -0.33983,0.19732z" id="Path 1"/></g><g id="Group 1" style="mix-blend-mode: normal"><path d="M448.89107,483.54891c0.1252,-0.02643 0.34755,-0.10754 0.43178,0.03361c0.08433,0.14115 -0.07541,0.26892 -0.18029,0.33847c-0.25218,0.15908 -0.30754,-0.27169 -0.13606,-0.38599z" id="Path 1"/></g><g id="Group 1" style="mix-blend-mode: normal"><path d="M449.61422,486.5877c-0.12367,0.02401 -0.235,0.08341 -0.31568,0.16876c-0.05015,0.0604 -0.0721,0.13577 -0.06059,0.20864c0.01112,0.07372 0.05471,0.13994 0.12118,0.18578c0.19662,0.17358 0.37598,0.25766 0.61119,0.12523c0.07951,-0.06019 0.14349,-0.13394 0.18822,-0.21747c0.04442,-0.08267 0.06824,-0.17263 0.06995,-0.26375c-0.00555,-0.07413 -0.03895,-0.14428 -0.09482,-0.20054c-0.1203,-0.10627 -0.26418,-0.08379 -0.41283,-0.04935z" id="Path 1"/></g><g id="Group 1" style="mix-blend-mode: normal"><path d="M447.73275,495.88878c0.44554,0.13063 0.87053,0.30778 1.26649,0.52634c0.32013,0.22027 0.62578,0.45561 0.91479,0.70639c0.45368,0.29228 0.93112,0.55591 1.42846,0.78985c0.43585,0.20737 0.80501,0.50475 1.07414,0.8673c0.10729,0.14909 0.17825,0.31597 0.2087,0.49007c0.03004,0.17494 0.01902,0.35327 -0.03263,0.52463c-0.08407,0.20246 -0.20699,0.39184 -0.36321,0.55922c-0.08368,0.07139 -0.14391,0.15081 -0.21339,0.22594c-0.03491,0.05216 -0.07611,0.10074 -0.12279,0.14508c-0.07876,0.06701 -0.11115,0.03866 -0.18255,-0.02546c-0.13445,-0.1034 -0.22787,-0.24127 -0.26763,-0.39423c-0.08894,-0.26032 -0.22995,-0.50416 -0.41651,-0.72133c-0.16993,-0.21655 -0.31858,-0.43505 -0.50501,-0.6418l-0.53606,-0.61129c-0.14971,-0.17724 -0.29409,-0.35968 -0.44836,-0.53718c-0.15396,-0.17836 -0.32495,-0.33386 -0.48887,-0.49879c-0.16373,-0.16584 -0.29124,-0.25796 -0.43683,-0.38694c-0.09241,-0.08193 -0.16376,-0.1734 -0.25617,-0.25533c-0.07142,-0.06318 -0.13709,-0.13052 -0.19587,-0.20261c-0.06507,-0.06338 -0.13375,-0.12396 -0.20587,-0.18167c-0.08951,-0.11891 -0.16384,-0.24514 -0.22083,-0.37814z" id="Path 1"/></g><g id="Group 1" style="mix-blend-mode: normal"><path d="M450.92595,496.435c-0.08213,-0.00653 -0.17558,-0.03119 -0.24449,0.00727c-0.03563,0.02268 -0.06699,0.04935 -0.09306,0.07927c-0.10374,0.14065 0.10872,0.34104 0.21507,0.43514c0.29914,0.28554 0.71299,0.46066 1.15863,0.49037c0.15272,0.00815 0.30601,-0.01465 0.44795,-0.06595c0.14194,-0.0513 0.26882,-0.13016 0.3709,-0.23067c0.22425,-0.29198 0.08588,-0.68799 -0.10869,-0.9639c-0.1946,-0.27589 -0.5066,-0.56388 -0.88255,-0.56483c-0.13012,-0.00694 -0.25988,0.02493 -0.36821,0.08887c-0.0714,0.06707 -0.13769,0.13642 -0.199,0.20991c-0.10042,0.08583 -0.23715,0.11398 -0.28453,0.24304c-0.03716,0.08742 -0.04144,0.18256 -0.01208,0.27146z" id="Path 1"/></g><g id="Group 1" style="mix-blend-mode: normal"><path d="M452.67776,498.0217c0.01627,-0.03249 0.04377,-0.05925 0.07863,-0.07744c0.03519,-0.01905 0.07572,-0.02723 0.11592,-0.02419c0.04413,-0.01007 0.0907,-0.00724 0.13217,0.00842c0.04146,0.01562 0.07528,0.04342 0.09666,0.07738c0.02016,0.02986 0.03273,0.06335 0.03696,0.0975c0.00378,0.035 -0.00062,0.06967 -0.01366,0.10305c-0.01293,0.0334 -0.03385,0.06374 -0.06142,0.08952c-0.02716,0.02493 -0.06067,0.04534 -0.09783,0.05916c-0.05427,0.01116 -0.11071,0.01046 -0.16443,-0.00183c-0.05365,-0.01226 -0.10247,-0.03645 -0.14202,-0.07047c-0.04349,-0.03506 -0.07207,-0.08131 -0.08044,-0.13255c-0.00845,-0.0513 0.00355,-0.10382 0.03385,-0.14868z" id="Path 1"/></g><g id="Group 1" style="mix-blend-mode: normal"><path d="M461.51882,494.44605c-0.12642,-0.06164 -0.27608,-0.07844 -0.41778,-0.04498c-0.03903,0.00198 -0.07694,0.01465 -0.10848,0.03464c-0.03175,0.02088 -0.05608,0.04941 -0.06966,0.08075c-0.07767,0.22113 -0.06189,0.45649 0.0439,0.66557c0.03828,0.06861 0.09187,0.12992 0.15811,0.17945c0.0658,0.05039 0.14298,0.08769 0.22635,0.11158c0.15544,0.02115 0.31407,0.02144 0.47021,0.0003c0.13634,-0.00747 0.2683,-0.02366 0.41213,-0.04991c0.11356,0.00162 0.22521,-0.02841 0.31835,-0.085c0.09345,-0.05748 0.16353,-0.13905 0.19991,-0.23229c0.0256,-0.10556 0.02112,-0.21434 -0.01296,-0.31673c-0.03416,-0.10243 -0.09711,-0.19546 -0.18265,-0.27181c-0.12771,-0.09309 -0.27955,-0.15766 -0.44305,-0.18849c-0.17107,-0.0347 -0.30624,-0.08828 -0.59435,0.11702z" id="Path 1"/></g><g id="Group 1" style="mix-blend-mode: normal"><path d="M460.24158,494.4954c0.08166,0.08379 0.14349,0.18129 0.1827,0.28599c-0.04064,0.03459 -0.01342,0.09555 -0.07995,0.1205c-0.06614,0.0241 -0.18175,-0.07812 -0.23028,-0.12487c-0.06453,-0.06137 -0.10001,-0.14147 -0.09902,-0.22523c0.00285,-0.03039 0.00521,-0.16097 0.07033,-0.1164z" id="Path 1"/></g><g id="Group 1" style="mix-blend-mode: normal"><path d="M446.95169,491.93531c-0.15816,0.03854 -0.33535,0.08149 -0.35056,0.26717c0.01006,0.08193 0.04797,0.15987 0.10929,0.22225c0.06111,0.06329 0.14279,0.10839 0.23451,0.13069c0.08622,0.03122 0.18439,0.06371 0.26294,0.01267c0.07821,-0.05015 0.14559,-0.12393 0.21738,-0.18524c0.16938,-0.1441 0.46241,-0.09705 0.47459,-0.36848c-0.00008,-0.06512 -0.01651,-0.12892 -0.04794,-0.18722c-0.03144,-0.0583 -0.07679,-0.11084 -0.13362,-0.15225c-0.20237,-0.12036 -0.46713,-0.04291 -0.67056,0.02992z" id="Path 1"/></g><g id="Group 1" style="mix-blend-mode: normal"><path d="M427.26654,485.40666c-0.23078,-0.12972 -0.49859,-0.19936 -0.7742,-0.20311l-0.075,0.06326c-0.0893,0.02838 -0.17083,0.07387 -0.23967,0.13217c-0.06787,0.05857 -0.12147,0.12842 -0.15627,0.20607c-0.18822,0.50153 0.24988,0.81047 0.61106,1.12558c0.36022,0.31484 0.82847,0.8082 1.19302,0.18799c0.15777,-0.2755 0.45951,-0.72635 0.39068,-1.05688c-0.03594,-0.17745 -0.13714,-0.19658 -0.29515,-0.26183c-0.20953,-0.1109 -0.44201,-0.18539 -0.685,-0.21927z" id="Path 1"/></g><g id="Group 1" style="mix-blend-mode: normal"><path d="M431.04921,489.81248c0.16526,-0.03665 0.45632,-0.13642 0.62342,-0.01781c0.167,0.11858 0.10421,0.19641 0.12761,0.32902c0.05341,0.29154 0.05178,0.6148 -0.39319,0.66079c-0.11519,0.00171 -0.22889,-0.01976 -0.33252,-0.06217c-0.10356,-0.04241 -0.19393,-0.10585 -0.26447,-0.18391c-0.10325,-0.13291 -0.1606,-0.45759 0.03382,-0.55071z" id="Path 1"/></g><g id="Group 1" style="mix-blend-mode: normal"><path d="M483.57863,476.86145c-0.43953,0.12951 -0.46777,0.13341 -0.68798,0.46231c-0.20214,0.23548 -0.33491,0.51007 -0.3864,0.79942c-0.0078,0.40847 0.34351,0.61055 0.55882,0.90888c0.05295,0.10739 0.13766,0.20051 0.24547,0.27045c0.10812,0.06908 0.23565,0.11214 0.36984,0.12484c0.35253,0.03252 0.71003,0.00783 1.05416,-0.07133c0.53751,-0.15465 1.03099,-0.40965 1.44567,-0.74673c0.41426,-0.33626 0.73996,-0.74777 0.9532,-1.20305c0.25488,-0.55854 0.47985,-1.26082 0.12149,-1.82715c-0.14318,-0.24065 -0.35919,-0.44199 -0.62485,-0.58373c-0.26576,-0.14177 -0.57175,-0.2177 -0.88558,-0.22021c-0.31148,0.01982 -0.61386,0.10435 -0.88188,0.24603c-0.26794,0.14174 -0.49385,0.33699 -0.65864,0.56914l-0.22269,0.33484c-0.11988,0.12414 -0.25348,0.23802 -0.39897,0.3403c-0.11996,0.13825 -0.16806,0.3162 -0.00171,0.59599z" id="Path 1"/></g><g id="Group 1" style="mix-blend-mode: normal"><path d="M481.62725,477.13984c0.04069,0.45144 0.0425,0.36511 -0.19797,0.65467c-0.10809,0.1244 -0.08368,0.19215 -0.23085,0.26945c-0.11201,0.04221 -0.23542,0.05402 -0.3547,0.03485c-0.11929,-0.01917 -0.22824,-0.06958 -0.31283,-0.14475c-0.11807,-0.10379 -0.06178,-0.46928 -0.01718,-0.58775c0.02343,-0.07404 0.0714,-0.14068 0.13813,-0.19198c0.06632,-0.05048 0.1485,-0.08355 0.23632,-0.09531z" id="Path 1"/></g><g id="Group 1" style="mix-blend-mode: normal"><path d="M453.71871,452.33414c-0.29684,0.15296 -0.67878,0.33826 -0.58717,0.72576c0.06792,0.25949 0.46249,0.40879 0.74836,0.44261c0.50281,0.02307 1.00321,-0.09419 1.42849,-0.33504c0.35673,-0.23155 0.32127,-0.84396 0.07508,-1.12401c-0.50387,-0.5707 -1.73849,-0.0477 -2.21948,0.28608z" id="Path 1"/></g><g id="Group 1" style="mix-blend-mode: normal"><path d="M450.6074,454.29716c0.03719,-0.08837 0.09887,-0.38162 0.2081,-0.43493c0.04064,-0.03459 0.10545,0.01081 0.15757,-0.00189c0.08697,-0.02425 0.17908,-0.03302 0.26968,-0.02425c0.0906,0.00877 0.17801,0.0337 0.25594,0.07407c0.15599,0.08736 0.27419,0.21664 0.33586,0.36883c0.06173,0.15216 0.06352,0.31874 0.00536,0.47327c-0.02063,0.10497 -0.08503,0.20125 -0.18066,0.26948c-0.09552,0.06826 -0.21572,0.10358 -0.33882,0.10133c-0.16441,-0.00369 -0.32078,-0.06002 -0.43875,-0.1581c-0.11807,-0.09812 -0.18905,-0.23197 -0.19965,-0.37444z" id="Path 1"/></g><g id="Group 1" style="mix-blend-mode: normal"><path d="M444.57322,503.66475c-0.59007,0.21064 -1.08734,0.58258 -1.41584,1.05848c-0.23376,0.29606 -0.57413,0.65464 -0.40034,1.03263c0.40879,0.88443 2.51165,0.03913 3.14064,-0.26883c0.54881,-0.26493 1.02884,-0.62632 1.40874,-1.06034c0.21429,-0.26345 0.53378,-0.88138 0.41768,-1.21587c-0.1493,-0.431 -0.73154,-0.58163 -1.17457,-0.52475c-1.05948,0.10015 -1.70164,0.86895 -2.59035,1.26135z" id="Path 1"/></g><g id="Group 1" style="mix-blend-mode: normal"><path d="M444.31075,503.25395c-0.18716,-0.14277 -0.39692,-0.26127 -0.62329,-0.35209c-0.13108,-0.0251 -0.33713,-0.06619 -0.47,-0.00118c-0.07181,0.05183 -0.12761,0.11832 -0.16249,0.19404c-0.03455,0.07487 -0.04709,0.15654 -0.03582,0.23593c-0.0021,0.05795 0.01252,0.11465 0.04229,0.16593c0.0297,0.05124 0.07412,0.0941 0.12846,0.12635c0.09081,0.03526 0.23713,0.00304 0.33161,-0.00981c0.17379,-0.02499 0.34411,-0.06784 0.50763,-0.12762c0.0815,-0.01911 0.16021,-0.0474 0.23409,-0.0827c0.11403,-0.06527 0.08516,-0.14933 0.13613,-0.23309z" id="Path 1"/></g><g id="Group 1" style="mix-blend-mode: normal"><path d="M440.11052,506.14078l0.11652,0.3025c-0.11167,0.06684 -0.18693,0.19136 -0.3391,0.16448c-0.13626,-0.04912 -0.24868,-0.13728 -0.31967,-0.24942c-0.03475,-0.05632 -0.04652,-0.12174 -0.03341,-0.1853c0.01309,-0.06356 0.0503,-0.12168 0.10568,-0.1656c0.12916,-0.11034 0.29945,-0.05036 0.43421,0.0314z" id="Path 1"/></g><g id="Group 1" style="mix-blend-mode: normal"><path d="M423.95692,500.75342c-0.07466,0.01902 -0.1407,0.05919 -0.18773,0.11282c-0.04714,0.05364 -0.07319,0.11944 -0.07427,0.1871c-0.01016,0.11244 0.029,0.22376 0.10947,0.31198c0.08088,0.08739 0.19737,0.14451 0.32581,0.16043c0.37287,0.04353 0.97675,-0.07003 1.20341,-0.36795c0.14207,-0.18527 0.12328,-0.56678 -0.16215,-0.63258c-0.15902,-0.04191 -0.32322,-0.0682 -0.4898,-0.07626c-0.25817,0.02351 -0.50136,0.12077 -0.6915,0.27639z" id="Path 1"/></g><g id="Group 1" style="mix-blend-mode: normal"><path d="M492.67563,457.44187c-0.15972,-0.00434 -0.22984,-0.02094 -0.35831,0.05278c-0.15212,0.07127 -0.26729,0.19097 -0.32127,0.33434c-0.03727,0.35634 0.0679,0.71247 0.29844,1.00635c0.07,0.11282 0.16933,0.20979 0.29018,0.28315c0.12123,0.07254 0.26032,0.1205 0.40708,0.13843c0.16765,0.03193 0.34185,0.0316 0.51069,-0.00035c0.16887,-0.03193 0.32848,-0.09463 0.46793,-0.18338c0.14834,-0.07602 0.26641,-0.19118 0.33672,-0.32742c0.07041,-0.13622 0.08995,-0.28773 0.05608,-0.43349c-0.04447,-0.30241 -0.16052,-0.59345 -0.34131,-0.85344c-0.07497,-0.0962 -0.17537,-0.17455 -0.2929,-0.22913c-0.11753,-0.05458 -0.24858,-0.08441 -0.38269,-0.08671c-0.26268,-0.02112 -0.66758,0.00334 -0.67069,0.29886z" id="Path 1"/></g><g id="Group 1" style="mix-blend-mode: normal"><path d="M493.6887,459.81152c0.07179,-0.06129 0.15539,-0.13267 0.24135,-0.08928c0.06437,0.05284 0.11532,0.11722 0.1499,0.18861c0.03455,0.07139 0.05227,0.14779 0.0516,0.22594c-0.0113,0.11971 -0.07262,0.23188 -0.17283,0.31588c-0.08464,0.0381 -0.18185,0.04835 -0.27312,0.02806c-0.06963,-0.00514 -0.13546,-0.02909 -0.18796,-0.06843c-0.05232,-0.04023 -0.08881,-0.09324 -0.10415,-0.15202c-0.01933,-0.08435 -0.08617,-0.28038 0.02527,-0.33499z" id="Path 1"/></g><g id="Group 1" style="mix-blend-mode: normal"><path d="M496.99937,447.11885c-0.11991,0.07788 -0.20434,0.18961 -0.2385,0.31558c-0.06316,0.22966 -0.06528,0.46789 -0.00591,0.69587c0.05634,0.30459 0.22409,0.58379 0.47848,0.79712c0.11053,0.06217 0.23995,0.09534 0.37248,0.09534c0.13274,-0.00089 0.26294,-0.0345 0.37507,-0.09841c0.25231,-0.17606 0.42602,-0.42377 0.49027,-0.69939c0.04932,-0.24747 0.03011,-0.50168 -0.05678,-0.73973c-0.08656,-0.23891 -0.23824,-0.45445 -0.44155,-0.63072c-0.49162,-0.36363 -1.19815,0.21079 -0.97359,0.26434z" id="Path 1"/></g><g id="Group 1" style="mix-blend-mode: normal"><path d="M497.33075,450.23843c-0.00324,-0.08107 0.01954,-0.16188 0.06559,-0.23279c0.09819,0.03249 0.19307,-0.01235 0.29313,0.02726c0.09384,0.04832 0.16189,0.12665 0.1911,0.21835c0.02252,0.05783 0.02669,0.12027 0.01226,0.18067c-0.01443,0.06037 -0.04673,0.11601 -0.09392,0.16212c-0.11929,0.10163 -0.18511,0.08993 -0.33006,0.04891c-0.14495,-0.04105 -0.13567,-0.02915 -0.15954,-0.14115c-0.0212,-0.06976 -0.03395,-0.14109 -0.03804,-0.21295z" id="Path 1"/></g></g><path d="M429.2923,482.53846c-0.37497,0.31924 -0.89642,0.39036 -1.16228,0.15515c-0.26587,-0.23525 -0.17514,-0.68601 0.20015,-1.00611c0.37528,-0.3201 0.89349,-0.3883 1.15938,-0.15308c0.26587,0.23525 0.17705,0.68368 -0.19722,1.00404z" id="Path 1" fill="url(#color-28)" fill-rule="evenodd"/><path d="M429.18993,482.44823c-0.29575,0.25329 -0.70379,0.30713 -0.91414,0.12145c-0.21004,-0.18654 -0.14,-0.53898 0.15573,-0.79228c0.29642,-0.25217 0.70379,-0.30713 0.91482,-0.12033c0.21038,0.18569 0.13709,0.54105 -0.1564,0.79115z" id="Path 1" fill="#ffffff" fill-rule="evenodd"/><path d="M449.92906,498.33342c-0.14751,0.15175 -0.35704,0.24848 -0.5831,0.26815c-0.22637,0.02056 -0.45145,-0.03689 -0.62713,-0.15964c-0.13813,-0.15532 -0.20051,-0.35108 -0.17288,-0.54764c0.02721,-0.19573 0.14202,-0.37595 0.31967,-0.5018c0.14761,-0.15172 0.35724,-0.24842 0.58382,-0.26892c0.22658,-0.0205 0.45228,0.03618 0.62853,0.15905c0.13795,0.15527 0.19947,0.35268 0.17159,0.54917c-0.0276,0.19564 -0.14303,0.3766 -0.32047,0.50159z" id="Path 1" fill="url(#color-29)" fill-rule="evenodd"/><path d="M449.81589,498.23282c-0.11654,0.12027 -0.28126,0.19579 -0.45953,0.21203c-0.17817,0.01627 -0.35559,-0.02862 -0.49413,-0.12552c-0.10851,-0.12204 -0.15697,-0.2773 -0.13541,-0.43112c0.02187,-0.15467 0.11245,-0.29692 0.252,-0.39506c0.11615,-0.11944 0.28118,-0.19579 0.45946,-0.21203c0.17827,-0.01624 0.35538,0.02951 0.49413,0.12552c0.10861,0.12207 0.15705,0.27733 0.13551,0.43112c-0.02187,0.15467 -0.11255,0.29686 -0.252,0.39506z" id="Path 1" fill="#ffffff" fill-rule="evenodd"/><path d="M439.69901,490.28794c0.36764,0.3253 0.9704,0.32937 1.34649,0.00854c0.37606,-0.32084 0.3828,-0.84473 0.01513,-1.17003c-0.36774,-0.32533 -0.97085,-0.32855 -1.3468,-0.00771c-0.37575,0.31998 -0.38256,0.84384 -0.01482,1.16914z" id="Path 1" fill="url(#color-30)" fill-rule="nonzero"/><path d="M440.90463,490.17157c-0.14404,0.12056 -0.33646,0.18784 -0.53513,0.18642c-0.19867,-0.00142 -0.3871,-0.07183 -0.52489,-0.19402c-0.13886,-0.12154 -0.21562,-0.28711 -0.21372,-0.4593c0.0021,-0.1731 0.08259,-0.33874 0.22419,-0.46184c0.14404,-0.12056 0.33615,-0.18699 0.53482,-0.18557c0.19867,0.00142 0.38744,0.07097 0.52489,0.19402c0.13886,0.12154 0.21562,0.28711 0.21372,0.4593c-0.00176,0.17225 -0.08228,0.33788 -0.22386,0.46098z" id="Path 1" fill="#ffffff" fill-rule="evenodd"/><path d="M445.62966,491.86998c-0.30264,0.57614 -0.73315,1.0959 -1.26638,1.52914c-0.53324,0.43325 -1.15876,0.77139 -1.8401,0.99477c-0.68178,0.22423 -1.40573,0.32881 -2.12999,0.30778c-0.72449,-0.02014 -1.43478,-0.16584 -2.09003,-0.42725c-1.33446,-0.5197 -2.37137,-1.47911 -2.88639,-2.66807c-0.51473,-1.18982 -0.46591,-2.51423 0.13626,-3.68712c0.30311,-0.57599 0.73343,-1.09489 1.26688,-1.52808c0.53334,-0.43322 1.15886,-0.77137 1.84023,-0.99474c0.68168,-0.22426 1.40545,-0.32887 2.1295,-0.3079c0.72429,0.02008 1.43481,0.16489 2.08995,0.42628c1.33454,0.51976 2.37168,1.47826 2.88639,2.66807c0.51481,1.18985 0.46591,2.51423 -0.13626,3.68712z" id="Path 1" fill="url(#color-31)" fill-rule="nonzero" style="mix-blend-mode: screen"/><path d="M495.41047,475.34249c-0.2414,0.45921 -0.58502,0.87447 -1.01047,1.22006c-0.42535,0.34559 -0.92459,0.61604 -1.46819,0.79458c-0.54373,0.17851 -1.12126,0.26221 -1.69951,0.24665c-0.57784,-0.01639 -1.14487,-0.13187 -1.66779,-0.34048c-1.06481,-0.41562 -1.89198,-1.18102 -2.30241,-2.13101c-0.41053,-0.95002 -0.3715,-2.00711 0.10864,-2.94319c0.24197,-0.45903 0.58579,-0.87332 1.01156,-1.21882c0.42615,-0.34633 0.92526,-0.61586 1.46917,-0.79431c0.54381,-0.17848 1.12154,-0.26212 1.69948,-0.2457c0.57802,0.01645 1.14497,0.13193 1.66831,0.33968c1.06401,0.41633 1.89079,1.18164 2.30103,2.13065c0.41003,0.94987 0.37082,2.00599 -0.1098,2.94195z" id="Path 1" fill="url(#color-32)" fill-rule="nonzero" style="mix-blend-mode: screen"/><path d="M500.31792,442.50097c-0.2414,0.45921 -0.58502,0.87447 -1.01037,1.22009c-0.42545,0.34559 -0.92459,0.61604 -1.46832,0.79455c-0.5436,0.17854 -1.12126,0.26221 -1.69951,0.24665c-0.57784,-0.01639 -1.14487,-0.13187 -1.66779,-0.34048c-1.06603,-0.41405 -1.89432,-1.17972 -2.305,-2.1298c-0.41081,-0.95011 -0.3709,-2.00788 0.11133,-2.94437c0.2414,-0.45921 0.5847,-0.87362 1.01037,-1.22009c0.42545,-0.34559 0.92425,-0.61518 1.46832,-0.79455c0.54373,-0.17851 1.12126,-0.26221 1.6992,-0.24579c0.57815,0.01554 1.14518,0.13102 1.6681,0.33962c1.06513,0.41571 1.89279,1.18122 2.3037,2.13039c0.41063,0.95005 0.37101,2.00791 -0.11004,2.94375z" id="Path 1" fill="url(#color-33)" fill-rule="nonzero" style="mix-blend-mode: screen"/><path d="M461.21735,445.6499c-0.12463,0.23705 -0.30217,0.45168 -0.52199,0.63063c-0.21961,0.17807 -0.47741,0.31771 -0.75849,0.41068c-0.28079,0.09209 -0.579,0.13524 -0.87776,0.12727c-0.29875,-0.00794 -0.59144,-0.06814 -0.86182,-0.17526c-0.55057,-0.21496 -0.97839,-0.61084 -1.19084,-1.10189c-0.21287,-0.49022 -0.19271,-1.037 0.05559,-1.52082c0.12512,-0.23787 0.30287,-0.45245 0.52269,-0.63042c0.22013,-0.17886 0.47819,-0.31845 0.7593,-0.41045c0.28111,-0.092 0.5796,-0.13506 0.87856,-0.12706c0.29862,0.00886 0.59183,0.06823 0.86213,0.17626c0.54938,0.21558 0.97662,0.61037 1.18848,1.10127c0.21217,0.49004 0.19214,1.03591 -0.05577,1.51984z" id="Path 1" fill="url(#color-34)" fill-rule="nonzero" style="mix-blend-mode: screen"/><path d="M451.02625,498.35365c-0.1162,0.22326 -0.28212,0.42489 -0.48796,0.59336c-0.20564,0.16758 -0.44717,0.29928 -0.71065,0.38649c-0.26343,0.08725 -0.54327,0.12768 -0.82367,0.12077c-0.28012,-0.00777 -0.55514,-0.06326 -0.80874,-0.1641c-0.51525,-0.19998 -0.91559,-0.56976 -1.11387,-1.02876c-0.19805,-0.45989 -0.17819,-0.9709 0.05543,-1.4227c0.11649,-0.22222 0.28206,-0.42206 0.48718,-0.58884c0.20554,-0.16761 0.44626,-0.29762 0.70871,-0.38416c0.26252,-0.08654 0.54114,-0.12632 0.82025,-0.11882c0.27901,0.00747 0.55265,0.06356 0.80509,0.16407c0.51409,0.19871 0.91427,0.56657 1.11405,1.02407c0.20002,0.45664 0.18343,0.96659 -0.04582,1.41862z" id="Path 1" fill="url(#color-35)" fill-rule="nonzero" style="mix-blend-mode: screen"/><path d="M430.44224,482.60181c-0.1167,0.22216 -0.28245,0.42197 -0.48747,0.58875c-0.20603,0.16746 -0.44707,0.29742 -0.71008,0.38381c-0.26304,0.08639 -0.54153,0.12623 -0.82116,0.11858c-0.27831,-0.00824 -0.55213,-0.06436 -0.80537,-0.16507c-0.51434,-0.20069 -0.91409,-0.57029 -1.11276,-1.02847c-0.19869,-0.45818 -0.17902,-0.96922 0.05261,-1.4206c0.1167,-0.22216 0.28287,-0.42279 0.48791,-0.59052c0.20572,-0.16664 0.44707,-0.29742 0.71008,-0.38381c0.26304,-0.08639 0.54184,-0.12709 0.82116,-0.11858c0.2796,0.00765 0.55342,0.06377 0.80667,0.16451c0.51434,0.20069 0.91409,0.57029 1.11245,1.02932c0.19818,0.45897 0.17869,0.97008 -0.05403,1.42214z" id="Path 1" fill="url(#color-36)" fill-rule="nonzero" style="mix-blend-mode: screen"/></g></g><rect x="657.49437" y="-10.29055" transform="rotate(42.07968) scale(0.97053,0.97967) skewX(-6.94537)" width="52.3698" height="153.935" id="Shape 1" fill="none" fill-rule="nonzero"/></g></g></g></g></svg>